<svg width="55" height="20" viewBox="0 0 55 20" fill="none" xmlns="http://www.w3.org/2000/svg">
<path d="M17.9561 19.9387H19.6275C20.4332 19.9387 20.8909 19.472 20.8909 18.6737V3.80281C20.8909 2.99552 20.4332 2.53042 19.6275 2.53042H17.9561C17.1414 2.53042 16.691 2.99552 16.691 3.80281V18.6737C16.691 19.472 17.1414 19.9387 17.9561 19.9387ZM23.2234 19.9387H26.6843C27.4972 19.9387 27.9476 19.472 27.9476 18.6737V6.97202C27.9476 6.1721 27.4972 5.707 26.6843 5.707H23.2234C22.4088 5.707 21.9511 6.1721 21.9511 6.97202V18.6737C21.9511 19.472 22.4088 19.9387 23.2234 19.9387ZM24.0225 9.05046C23.6769 9.05046 23.4136 8.78885 23.4136 8.45222C23.4136 8.11972 23.6753 7.85811 24.0225 7.85811H25.9096C26.2656 7.85811 26.5021 8.11972 26.5021 8.45222C26.5021 8.78885 26.2479 9.05046 25.9096 9.05046H24.0225ZM24.0225 17.795C23.6753 17.795 23.4136 17.5334 23.4136 17.1951C23.4136 16.8642 23.6769 16.601 24.0225 16.601H25.9096C26.2479 16.601 26.5021 16.8642 26.5021 17.1951C26.5021 17.5334 26.2479 17.795 25.9096 17.795H24.0225ZM30.2802 19.9387H32.367C33.1817 19.9387 33.6321 19.472 33.6321 18.6737V1.27238C33.6321 0.465099 33.1817 0 32.367 0H30.2802C29.4655 0 29.0151 0.465099 29.0151 1.27238V18.6737C29.0151 19.472 29.4655 19.9387 30.2802 19.9387ZM36.4989 19.9868L37.8562 19.8015C38.6545 19.7069 39.0504 19.2019 38.9648 18.3963L37.3286 3.76225C37.2414 2.96233 36.7438 2.54604 35.9325 2.64634L34.5826 2.83331C33.7768 2.92788 33.381 3.43281 33.4682 4.22951L35.1101 18.8651C35.1973 19.6634 35.6949 20.0814 36.4989 19.9868Z" fill="#DCDCDC"/>
</svg>
