<svg width="55" height="20" viewBox="0 0 55 20" fill="none" xmlns="http://www.w3.org/2000/svg">
<path d="M19.8952 19.3716C19.8952 19.5704 20.056 19.672 20.2616 19.5857L23.1537 18.3241C23.39 18.2216 23.4882 18.1337 23.4882 17.8964V4.62077C23.4882 4.38951 23.39 4.29391 23.1614 4.20074L20.2616 2.92982C20.056 2.84521 19.8952 2.94677 19.8952 3.15325V19.3716Z" fill="#DCDCDC"/>
<path d="M17.8707 20C17.3702 20 16.9609 19.5908 16.9609 19.0902V2.16408C16.9609 0.852927 17.8275 0 19.1649 0H29.5121C30.8555 0 31.7143 0.852927 31.7143 2.16408V9.37723L29.8888 9.37723V2.33273C29.8888 2.02451 29.6898 1.82548 29.3986 1.82548H19.2767C18.9854 1.82548 18.7864 2.02451 18.7864 2.33273V19.0902C18.7864 19.5908 18.3772 20 17.8707 20Z" fill="#DCDCDC"/>
<path d="M29.8888 12.5346V19.0902C29.8888 19.5908 30.2981 20 30.8062 20C31.3068 20 31.7143 19.5908 31.7143 19.0902V12.5346H29.8888Z" fill="#DCDCDC"/>
<path d="M27.2837 11.7395H34.5721L36.372 11.648L34.531 13.267L34.0261 13.7907C33.8805 13.9379 33.7892 14.1375 33.7892 14.366C33.7892 14.799 34.1064 15.1069 34.5335 15.1069C34.7593 15.1069 34.9489 15.0316 35.0944 14.8767L38.3945 11.5952C38.5949 11.395 38.7064 11.171 38.7064 10.9529C38.7064 10.7408 38.5949 10.5109 38.3945 10.3166L35.0944 7.0274C34.9489 6.88023 34.7593 6.79897 34.5335 6.79897C34.1064 6.79897 33.7892 7.1128 33.7892 7.54756C33.7892 7.76836 33.8788 7.97389 34.0261 8.12114L34.531 8.63883L36.372 10.2654L34.5721 10.1723H27.2837C26.809 10.1723 26.5021 10.5361 26.5021 10.9529C26.5021 11.3681 26.809 11.7395 27.2837 11.7395Z" fill="#DCDCDC"/>
</svg>
