<svg width="56" height="20" viewBox="0 0 56 20" fill="none" xmlns="http://www.w3.org/2000/svg">
<path d="M30.2838 18.1666H25.3758V12.0919C25.3758 11.6547 25.6693 11.3705 26.1065 11.3705H29.5625C29.9997 11.3705 30.2838 11.6547 30.2838 12.0919V18.1666ZM19.4395 17.8426C19.4395 19.1871 20.2845 20 21.6697 20H34.0112C35.3964 20 36.2321 19.1871 36.2321 17.8426V10.7121L28.415 4.15477C28.0509 3.84857 27.618 3.85624 27.2617 4.15477L19.4395 10.7121V17.8426ZM16.4136 9.43433C16.4136 9.91739 16.777 10.3295 17.37 10.3295C17.6606 10.3295 17.9197 10.1791 18.1482 9.99134L27.4434 2.19272C27.6948 1.97018 27.9895 1.97018 28.2426 2.19272L37.5328 9.99134C37.7553 10.1791 38.0143 10.3295 38.305 10.3295C38.8425 10.3295 39.2537 9.99581 39.2537 9.45733C39.2537 9.14126 39.1315 8.89681 38.8946 8.69469L29.1543 0.50787C28.354 -0.16929 27.3397 -0.16929 26.5317 0.50787L16.7804 8.69637C16.5358 8.90017 16.4136 9.1736 16.4136 9.43433ZM33.6204 4.90215L36.2642 7.12697V2.60974C36.2642 2.18787 35.9954 1.9191 35.5735 1.9191H34.3128C33.8986 1.9191 33.6204 2.18787 33.6204 2.60974V4.90215Z" fill="#DCDCDC"/>
</svg>
