<svg width="208" height="208" viewBox="0 0 208 208" fill="none" xmlns="http://www.w3.org/2000/svg">
<g clip-path="url(#clip0_1_449)">
<path fill-rule="evenodd" clip-rule="evenodd" d="M188.996 100.739L189.087 106.656C189.105 106.834 189.108 107.013 189.094 107.192L188.572 113.455C191.114 114.854 193.659 116.368 196.21 117.997C199.246 119.939 202.248 122.02 205.216 124.241C205.735 124.575 206.137 125.06 206.368 125.628C206.599 126.197 206.647 126.821 206.506 127.418C205.731 130.765 204.688 134.125 203.66 137.447L203.236 138.839L203.229 138.833C203.054 139.421 202.695 139.941 202.204 140.316C201.713 140.691 201.114 140.904 200.493 140.923C196.837 141.028 193.231 141.006 189.675 140.858C186.749 140.734 183.884 140.533 181.08 140.257C180.571 141.302 180.024 142.322 179.477 143.342C179.034 144.166 178.59 144.996 178.297 145.572C178.258 145.657 178.224 145.735 178.18 145.813C177.281 147.481 176.27 149.011 175.26 150.534L174.752 151.318C176.382 153.783 177.937 156.326 179.418 158.948C181.217 162.125 182.898 165.394 184.501 168.774C184.764 169.294 184.868 169.879 184.801 170.457C184.734 171.035 184.498 171.581 184.123 172.03C181.888 174.671 179.463 177.11 177.033 179.548C176.987 179.6 176.935 179.652 176.889 179.705L175.945 180.646C175.51 181.082 174.947 181.371 174.336 181.472C173.725 181.573 173.098 181.481 172.543 181.208C169.246 179.574 166.037 177.85 162.918 176.037C160.474 174.612 158.063 173.115 155.684 171.546C154.726 172.267 153.775 172.912 152.823 173.559C152.041 174.095 151.259 174.631 150.699 175.03C150.637 175.08 150.572 175.126 150.503 175.168C148.874 176.227 147.292 177.103 145.713 177.979L144.964 178.398C145.27 181.307 145.474 184.291 145.577 187.348C145.707 190.983 145.686 194.664 145.538 198.404C145.538 198.991 145.362 199.566 145.031 200.055C144.701 200.544 144.23 200.925 143.68 201.149C140.428 202.457 137.164 203.477 133.912 204.49L132.446 204.947C131.856 205.132 131.222 205.127 130.635 204.934C130.049 204.74 129.539 204.369 129.179 203.872C127.042 200.936 125.017 197.947 123.105 194.902C121.567 192.457 120.105 189.975 118.719 187.456C117.559 187.645 116.421 187.763 115.279 187.888C114.431 187.98 113.591 188.071 112.731 188.189C112.666 188.202 112.594 188.215 112.529 188.222C110.642 188.42 108.744 188.503 106.846 188.47C106.579 188.476 106.312 188.476 106.038 188.476C104.931 191.307 103.731 194.034 102.441 196.714C100.838 200.035 99.1109 203.265 97.2539 206.508C96.9873 206.979 96.5933 207.369 96.1157 207.632C95.6381 207.895 95.0958 208.022 94.5495 207.998C91.5258 207.854 88.7171 207.299 85.9084 206.743C84.8136 206.527 83.7255 206.31 82.7216 206.135C82.1111 206.027 81.55 205.733 81.1167 205.294C80.6833 204.856 80.3992 204.295 80.304 203.69C79.7435 200.225 79.333 196.714 79.0593 193.255C78.8247 190.299 78.6879 187.293 78.6214 184.286C76.6874 183.658 74.8289 182.887 72.9781 182.123L72.9193 182.097L72.8463 182.071C70.787 181.296 68.7876 180.374 66.864 179.312C64.5833 181.286 62.2566 183.143 59.8715 184.915C56.9066 187.118 53.8632 189.184 50.7155 191.158V191.145C50.254 191.434 49.7199 191.588 49.1738 191.592C48.6278 191.595 48.0917 191.447 47.6265 191.165C44.616 189.326 41.9766 187.19 39.3503 185.052C39.0584 184.817 38.7767 184.588 38.0078 183.967C37.5374 183.582 37.1952 183.066 37.0255 182.487C36.8558 181.907 36.8666 181.291 37.0565 180.717C38.1512 177.437 39.4091 174.167 40.7786 170.976C41.9711 168.185 43.2549 165.432 44.5777 162.765C43.191 161.333 41.9058 159.797 40.6155 158.267L40.5425 158.182L40.4837 158.116C39.0349 156.47 37.7023 154.727 36.4956 152.899C33.6022 153.579 30.6763 154.142 27.6917 154.612C24.0098 155.189 20.3734 155.606 16.7046 155.9C16.1542 155.943 15.6029 155.831 15.1133 155.579C14.6237 155.327 14.2154 154.945 13.9349 154.475C12.195 151.572 10.9061 148.571 9.6209 145.571C9.16476 144.512 8.80642 143.668 8.76737 143.577H8.77394C8.5316 143.023 8.46542 142.41 8.58416 141.818C8.70289 141.226 9.00095 140.683 9.43881 140.263C11.9607 137.837 14.6001 135.523 17.2717 133.339C19.6242 131.417 22.0155 129.587 24.3812 127.867C23.7751 125.848 23.3453 123.833 22.9216 121.819L22.9019 121.728C22.3834 119.627 22.0153 117.493 21.8006 115.34C18.8813 114.582 16.0228 113.721 13.2251 112.758C9.87135 111.606 6.49263 110.289 3.08897 108.807C2.53875 108.601 2.06224 108.239 1.71911 107.767C1.37599 107.295 1.18152 106.733 1.16005 106.152C1.11443 105.231 1.09473 104.314 1.09473 103.394V103.204C1.09473 102.159 1.12064 101.119 1.16771 100.079C1.25237 98.0963 1.40892 96.1497 1.61071 94.2211C1.64666 93.6116 1.87265 93.028 2.25766 92.5504C2.64267 92.0728 3.16785 91.7246 3.76114 91.5535C7.16942 90.5795 10.6536 89.7296 14.2137 89.0038C17.0289 88.4284 19.8723 87.9381 22.7439 87.5326C23.0986 85.4137 23.5993 83.3211 24.2426 81.2696C24.8224 79.2429 25.4026 77.2163 26.1584 75.1961C23.9233 73.1367 21.701 70.9532 19.5374 68.6713C17.1392 66.1479 14.8129 63.4868 12.6168 60.7017C12.2185 60.2548 11.9641 59.7008 11.8861 59.1104C11.8081 58.5199 11.9101 57.92 12.1789 57.3871C13.0587 55.6207 13.9842 53.8633 14.9745 52.1175C15.9324 50.4373 16.9556 48.77 18.096 47.1226C18.405 46.5911 18.8771 46.1704 19.444 45.9212C20.011 45.6721 20.6434 45.6074 21.2499 45.7365C24.7494 46.4885 28.2292 47.3587 31.7156 48.3778C34.4981 49.1885 37.2287 50.0775 39.9261 51.0519C41.2165 49.3376 42.6369 47.7228 44.1752 46.2214L44.7094 45.6655V45.659C45.9932 44.3317 47.2704 43.0048 48.6782 41.7561C47.6291 38.8664 46.6712 35.931 45.8238 32.9692C44.8594 29.5828 44.0252 26.111 43.3541 22.5808C43.2147 22.0105 43.2485 21.4123 43.4514 20.8609C43.6542 20.3095 44.017 19.8294 44.4945 19.4806C46.0326 18.3562 47.6615 17.2315 49.4339 16.0942C51.1151 15.0156 52.8159 14.0088 54.5299 13.1C55.0526 12.7888 55.6607 12.6467 56.2692 12.6935C56.8776 12.7404 57.456 12.9739 57.9236 13.3613C60.6802 15.6562 63.3648 18.0477 65.9845 20.5711C68.0699 22.5847 70.0814 24.6485 72.0191 26.7624C73.9688 25.8527 75.9807 25.0793 78.0401 24.4481C80.0081 23.7747 81.9812 23.1078 84.0612 22.5912C84.4783 19.61 85.0059 16.5711 85.6445 13.5037C86.3744 10.0193 87.2607 6.51501 88.3033 3.07598C88.4546 2.51578 88.7705 2.01244 89.2113 1.62958C89.6521 1.24672 90.1978 1.00152 90.7796 0.924967C92.8753 0.659649 94.941 0.396495 96.6678 0.247615C98.6215 0.0658958 100.584 -0.0148428 102.546 0.00572913C103.168 -0.0303116 103.786 0.129324 104.31 0.46171C104.835 0.794097 105.239 1.28214 105.465 1.85574C106.82 5.18338 108.072 8.51751 109.224 11.963C110.143 14.7027 110.97 17.4611 111.713 20.2726L112.365 20.3184C114.247 20.4164 116.121 20.6331 117.976 20.9672C118.021 20.9737 118.06 20.9802 118.099 20.9867C118.79 21.1309 119.761 21.3007 120.732 21.464C121.918 21.6666 123.098 21.876 124.303 22.1489C126.037 19.7168 127.881 17.3045 129.836 14.9118C132.15 12.0874 134.58 9.34158 137.122 6.72662C137.532 6.30165 138.064 6.01066 138.646 5.89263C139.228 5.7746 139.833 5.83516 140.38 6.06621C141.26 6.43895 142.46 6.90974 143.658 7.38018C146.239 8.39999 148.825 9.41331 151.36 10.8387C151.863 11.1216 152.272 11.5416 152.539 12.0482C152.806 12.5549 152.919 13.1268 152.866 13.6955C152.52 17.3894 152.063 20.9773 151.497 24.4892C151.035 27.3264 150.488 30.1464 149.855 32.949L150.364 33.276C151.889 34.2565 153.4 35.2309 154.938 36.3618C155.029 36.427 155.121 36.4926 155.212 36.5708C156.105 37.3095 156.704 37.7803 157.297 38.2446C158.242 38.9897 159.187 39.7287 160.107 40.5196C162.766 39.1923 165.536 37.9111 168.391 36.7082C171.76 35.2828 175.181 33.9883 178.602 32.864H178.609C179.176 32.6804 179.787 32.6728 180.359 32.8423C180.931 33.0118 181.437 33.3502 181.808 33.812C182.429 34.5691 183.32 35.6033 184.213 36.63C186.049 38.6505 187.738 40.7957 189.27 43.0498C189.598 43.5353 189.777 44.1045 189.784 44.6883C189.79 45.272 189.626 45.8452 189.309 46.3382C187.322 49.4045 185.269 52.3659 183.112 55.2555C181.385 57.5698 179.595 59.8232 177.742 62.0157C177.879 62.2576 178.016 62.493 178.146 62.7219C179.052 64.304 179.965 65.8941 180.72 67.5008C180.759 67.5673 180.792 67.6373 180.818 67.7099C181.163 68.5466 181.561 69.4096 181.952 70.2791C182.426 71.3382 182.91 72.3973 183.347 73.4827C186.396 73.5415 189.441 73.699 192.444 73.9535C196.008 74.2542 199.625 74.7055 203.248 75.3198C203.841 75.4238 204.389 75.7023 204.819 76.1187C205.249 76.535 205.542 77.07 205.66 77.6535C205.842 78.5548 206.142 79.811 206.435 81.0727C207.125 83.7452 207.635 86.46 207.96 89.1992C208.062 89.7996 207.976 90.4165 207.713 90.967C207.45 91.5175 207.022 91.9752 206.487 92.2784C203.314 94.0633 200.101 95.7283 196.849 97.2733C194.236 98.516 191.618 99.6713 188.996 100.739Z" fill="#00DAC4"/>
<path fill-rule="evenodd" clip-rule="evenodd" d="M138.414 171.44H171.523V123.636H138.414V171.44Z" fill="black"/>
<path fill-rule="evenodd" clip-rule="evenodd" d="M171.523 171.44H192.463V123.636H171.523V171.44Z" fill="black"/>
<path d="M171.927 123.636V171.439H171.12V123.636H171.927Z" fill="#1BD9C4"/>
<path d="M171.523 134.071H192.473V134.866H171.523V134.071Z" fill="#1BD9C4"/>
<path d="M171.523 144.118H192.473V144.911H171.523V144.118Z" fill="#1BD9C4"/>
<path fill-rule="evenodd" clip-rule="evenodd" d="M160.402 123.665H165.153V96.6868H160.402V123.665Z" fill="black"/>
<path fill-rule="evenodd" clip-rule="evenodd" d="M27.7227 171.439H30.7672V96.6587H27.7227V171.439Z" fill="black"/>
<path d="M28.1256 171.043H30.3644V97.0564H28.1256V171.043ZM30.7672 171.838H27.7213C27.6151 171.837 27.5133 171.795 27.4382 171.721C27.3631 171.647 27.3206 171.546 27.3199 171.441V96.6575C27.3218 96.5529 27.3647 96.4534 27.4395 96.3794C27.5144 96.3054 27.6155 96.263 27.7213 96.2611H30.7658C30.8717 96.263 30.9726 96.3054 31.0475 96.3794C31.1224 96.4534 31.1653 96.5529 31.1671 96.6575V171.439C31.1672 171.544 31.1253 171.645 31.0503 171.72C30.9754 171.795 30.8737 171.837 30.7672 171.838Z" fill="black"/>
<path d="M83.1502 87.9858H80.2676C78.6333 87.982 77.0669 87.3394 75.9107 86.1983C74.7546 85.0572 74.1025 83.5102 74.0972 81.8957V72.9258H74.903V81.8953C74.9102 83.2982 75.4778 84.6417 76.4823 85.6333C77.4869 86.6249 78.8471 87.1844 80.2672 87.1905H83.1498L83.1502 87.9858Z" fill="black"/>
<path fill-rule="evenodd" clip-rule="evenodd" d="M53.0834 91.576H79.0893V87.5846H53.0834V91.576Z" fill="black"/>
<path fill-rule="evenodd" clip-rule="evenodd" d="M122.125 94.5987H135.632V78.4733H122.125V94.5987Z" fill="black"/>
<path fill-rule="evenodd" clip-rule="evenodd" d="M99.2235 42.5001H158.522C159.123 42.5018 159.7 42.7385 160.125 43.1585C160.551 43.5785 160.791 44.1477 160.794 44.742V78.0735C160.791 78.6678 160.551 79.2373 160.126 79.6574C159.7 80.0775 159.123 80.3143 158.522 80.3161H99.2235C98.6219 80.3143 98.0457 80.0775 97.6203 79.6573C97.1948 79.2372 96.9548 78.6678 96.9528 78.0735V44.7423C96.9549 44.1481 97.1948 43.5789 97.6203 43.1588C98.0457 42.7387 98.622 42.5019 99.2235 42.5001Z" fill="black"/>
<path fill-rule="evenodd" clip-rule="evenodd" d="M100.142 77.1587H157.597V45.6479H100.142V77.1587Z" fill="#1BD9C4"/>
<path fill-rule="evenodd" clip-rule="evenodd" d="M56.3935 91.5772H69.8997V78.4737H56.3935V91.5772Z" fill="black"/>
<path fill-rule="evenodd" clip-rule="evenodd" d="M115.095 162.597H104.972L93.4719 167.733V171.438H115.095V162.597Z" fill="white"/>
<path d="M114.694 162.996H105.054L93.8751 167.989V171.042H114.694V162.996ZM104.974 162.2H115.097C115.15 162.2 115.202 162.21 115.251 162.23C115.3 162.249 115.344 162.279 115.382 162.315C115.419 162.352 115.449 162.396 115.469 162.444C115.489 162.493 115.499 162.544 115.498 162.596V171.439C115.499 171.491 115.489 171.543 115.469 171.591C115.449 171.639 115.419 171.684 115.382 171.72C115.344 171.757 115.3 171.787 115.251 171.806C115.202 171.826 115.15 171.836 115.097 171.835H93.4728C93.3665 171.835 93.2646 171.793 93.1895 171.718C93.1143 171.644 93.0717 171.544 93.0712 171.439V167.733C93.071 167.656 93.0937 167.581 93.1367 167.517C93.1797 167.453 93.2411 167.404 93.3128 167.374L104.782 162.245C104.841 162.213 104.907 162.197 104.974 162.199V162.2Z" fill="black"/>
<path fill-rule="evenodd" clip-rule="evenodd" d="M66.2075 91.5757H79.0856V86.01L68.3171 87.6801L66.2075 91.5757Z" fill="white"/>
<path d="M152.055 51.0793C152.162 51.0793 152.264 51.1211 152.339 51.1957C152.415 51.2702 152.457 51.3714 152.457 51.4768C152.457 51.5822 152.415 51.6833 152.339 51.7579C152.264 51.8324 152.162 51.8742 152.055 51.8742H138.791C138.684 51.8742 138.582 51.8324 138.506 51.7579C138.431 51.6833 138.388 51.5822 138.388 51.4768C138.388 51.3714 138.431 51.2702 138.506 51.1957C138.582 51.1211 138.684 51.0793 138.791 51.0793H152.055Z" fill="white"/>
<path d="M130.307 51.0793C130.414 51.0793 130.516 51.1211 130.592 51.1957C130.667 51.2702 130.71 51.3714 130.71 51.4768C130.71 51.5822 130.667 51.6833 130.592 51.7579C130.516 51.8324 130.414 51.8742 130.307 51.8742H126.426C126.319 51.8742 126.217 51.8324 126.141 51.7579C126.066 51.6833 126.023 51.5822 126.023 51.4768C126.023 51.3714 126.066 51.2702 126.141 51.1957C126.217 51.1211 126.319 51.0793 126.426 51.0793H130.307Z" fill="white"/>
<path d="M113.371 51.0793C113.478 51.0793 113.58 51.1211 113.656 51.1957C113.731 51.2702 113.774 51.3714 113.774 51.4768C113.774 51.5822 113.731 51.6833 113.656 51.7579C113.58 51.8324 113.478 51.8742 113.371 51.8742H104.714C104.608 51.8742 104.505 51.8324 104.43 51.7579C104.354 51.6833 104.312 51.5822 104.312 51.4768C104.312 51.3714 104.354 51.2702 104.43 51.1957C104.505 51.1211 104.608 51.0793 104.714 51.0793H113.371Z" fill="white"/>
<path d="M152.056 54.4178C152.162 54.4178 152.265 54.4597 152.34 54.5343C152.416 54.6089 152.458 54.71 152.458 54.8154C152.458 54.9209 152.416 55.0219 152.34 55.0965C152.265 55.1711 152.162 55.213 152.056 55.213H146.013C145.906 55.213 145.804 55.1711 145.728 55.0965C145.653 55.0219 145.61 54.9209 145.61 54.8154C145.61 54.71 145.653 54.6089 145.728 54.5343C145.804 54.4597 145.906 54.4178 146.013 54.4178H152.056Z" fill="white"/>
<path d="M107.012 54.4178C107.119 54.4178 107.221 54.4597 107.296 54.5343C107.372 54.6089 107.414 54.71 107.414 54.8154C107.414 54.9209 107.372 55.0219 107.296 55.0965C107.221 55.1711 107.119 55.213 107.012 55.213H104.717C104.61 55.213 104.508 55.1711 104.432 55.0965C104.357 55.0219 104.314 54.9209 104.314 54.8154C104.314 54.71 104.357 54.6089 104.432 54.5343C104.508 54.4597 104.61 54.4178 104.717 54.4178H107.012Z" fill="white"/>
<path d="M136.879 54.4178C136.986 54.4178 137.088 54.4597 137.163 54.5343C137.239 54.6089 137.282 54.71 137.282 54.8154C137.282 54.9209 137.239 55.0219 137.163 55.0965C137.088 55.1711 136.986 55.213 136.879 55.213H132.998C132.891 55.213 132.789 55.1711 132.713 55.0965C132.638 55.0219 132.595 54.9209 132.595 54.8154C132.595 54.71 132.638 54.6089 132.713 54.5343C132.789 54.4597 132.891 54.4178 132.998 54.4178H136.879Z" fill="white"/>
<path d="M129.914 54.4178C130.021 54.4178 130.123 54.4597 130.199 54.5343C130.274 54.6089 130.317 54.71 130.317 54.8154C130.317 54.9209 130.274 55.0219 130.199 55.0965C130.123 55.1711 130.021 55.213 129.914 55.213H123.261C123.155 55.213 123.052 55.1711 122.977 55.0965C122.901 55.0219 122.859 54.9209 122.859 54.8154C122.859 54.71 122.901 54.6089 122.977 54.5343C123.052 54.4597 123.155 54.4178 123.261 54.4178H129.914Z" fill="white"/>
<path d="M152.055 57.8035C152.161 57.8035 152.263 57.8453 152.339 57.9196C152.414 57.994 152.456 58.0949 152.456 58.2C152.456 58.3052 152.414 58.4061 152.339 58.4804C152.263 58.5548 152.161 58.5966 152.055 58.5966H138.79C138.738 58.5966 138.685 58.5863 138.637 58.5663C138.588 58.5464 138.544 58.5173 138.507 58.4804C138.47 58.4436 138.439 58.3999 138.419 58.3518C138.399 58.3037 138.389 58.2521 138.389 58.2C138.389 58.148 138.399 58.0964 138.419 58.0483C138.439 58.0002 138.47 57.9565 138.507 57.9196C138.544 57.8828 138.588 57.8535 138.637 57.8336C138.685 57.8136 138.738 57.8035 138.79 57.8035H152.055Z" fill="white"/>
<path d="M151.955 64.5517C152.062 64.552 152.164 64.5938 152.24 64.6681C152.315 64.7423 152.358 64.8431 152.359 64.9483C152.359 65.0006 152.349 65.0525 152.329 65.1009C152.309 65.1493 152.279 65.1932 152.241 65.2301C152.204 65.267 152.159 65.2961 152.11 65.3158C152.061 65.3355 152.008 65.3454 151.955 65.3449H142.478C142.371 65.3446 142.269 65.3028 142.193 65.2285C142.118 65.1543 142.075 65.0535 142.074 64.9483C142.076 64.8435 142.119 64.7436 142.195 64.6697C142.27 64.5957 142.372 64.5535 142.478 64.5517H151.955Z" fill="white"/>
<path d="M151.954 68.1519C152.061 68.1519 152.163 68.1938 152.238 68.2684C152.314 68.343 152.357 68.4442 152.357 68.5497C152.357 68.6552 152.314 68.7564 152.238 68.831C152.163 68.9056 152.061 68.9475 151.954 68.9475H149.032C148.925 68.9475 148.822 68.9056 148.747 68.831C148.671 68.7564 148.629 68.6552 148.629 68.5497C148.629 68.4442 148.671 68.343 148.747 68.2684C148.822 68.1938 148.925 68.1519 149.032 68.1519H151.954Z" fill="white"/>
<path d="M145.412 68.1519C145.519 68.1519 145.621 68.1938 145.697 68.2684C145.773 68.343 145.815 68.4442 145.815 68.5497C145.815 68.6552 145.773 68.7564 145.697 68.831C145.621 68.9056 145.519 68.9475 145.412 68.9475H142.48C142.373 68.9475 142.271 68.9056 142.195 68.831C142.12 68.7564 142.077 68.6552 142.077 68.5497C142.077 68.4442 142.12 68.343 142.195 68.2684C142.271 68.1938 142.373 68.1519 142.48 68.1519H145.412Z" fill="white"/>
<path d="M139.01 68.1519C139.117 68.1519 139.219 68.1938 139.295 68.2684C139.37 68.343 139.413 68.4442 139.413 68.5497C139.413 68.6552 139.37 68.7564 139.295 68.831C139.219 68.9056 139.117 68.9475 139.01 68.9475H128.363C128.256 68.9475 128.154 68.9056 128.078 68.831C128.003 68.7564 127.96 68.6552 127.96 68.5497C127.96 68.4442 128.003 68.343 128.078 68.2684C128.154 68.1938 128.256 68.1519 128.363 68.1519H139.01Z" fill="white"/>
<path fill-rule="evenodd" clip-rule="evenodd" d="M49.0967 96.6955H177.152V91.5748H49.0967V96.6955Z" fill="white"/>
<path d="M49.5 96.2975H176.75V91.9717H49.5V96.2975ZM177.153 97.0928H48.6942V91.1768H177.556V97.0924L177.153 97.0928Z" fill="black"/>
<path fill-rule="evenodd" clip-rule="evenodd" d="M14.8687 96.6955H49.1781V91.5748H14.8687V96.6955Z" fill="white"/>
<path d="M15.2716 96.2975H48.7753V91.9717H15.2716V96.2975ZM49.1781 97.0928H14.4662V91.1768H49.581V97.0924L49.1781 97.0928Z" fill="black"/>
<path fill-rule="evenodd" clip-rule="evenodd" d="M33.503 42.5001H92.8013C93.4028 42.5018 93.9792 42.7385 94.4048 43.1585C94.8303 43.5785 95.0705 44.1477 95.0728 44.742V78.0735C95.0706 78.6678 94.8305 79.2373 94.405 79.6574C93.9794 80.0775 93.4029 80.3143 92.8013 80.3161H33.503C32.9014 80.3142 32.325 80.0773 31.8995 79.6572C31.474 79.2371 31.234 78.6678 31.2318 78.0735V44.7423C31.234 44.1481 31.474 43.5788 31.8995 43.1588C32.325 42.7387 32.9015 42.5019 33.503 42.5001Z" fill="black"/>
<path fill-rule="evenodd" clip-rule="evenodd" d="M34.42 77.1587H91.8839V45.6479H34.42V77.1587Z" fill="white"/>
<path fill-rule="evenodd" clip-rule="evenodd" d="M129.839 171.439H132.876V96.6587H129.839V171.439Z" fill="black"/>
<path d="M130.243 171.043H132.473V97.0564H130.243V171.043ZM132.877 171.838H129.84C129.787 171.838 129.735 171.828 129.686 171.808C129.637 171.789 129.592 171.759 129.555 171.723C129.518 171.686 129.488 171.642 129.468 171.594C129.448 171.545 129.438 171.493 129.438 171.441V96.6575C129.438 96.5523 129.481 96.4516 129.556 96.3773C129.631 96.3029 129.734 96.2611 129.84 96.2611H132.877C132.983 96.2618 133.085 96.3038 133.161 96.378C133.236 96.4522 133.278 96.5525 133.279 96.6575V171.439C133.279 171.491 133.27 171.543 133.25 171.592C133.23 171.64 133.2 171.684 133.163 171.722C133.125 171.759 133.081 171.788 133.032 171.808C132.983 171.828 132.93 171.838 132.877 171.838Z" fill="black"/>
<path fill-rule="evenodd" clip-rule="evenodd" d="M106.058 162.598L100.226 127.644H113.153L115.093 162.598L106.058 162.598Z" fill="black"/>
<path d="M105.656 162.638L99.8328 127.707C99.8159 127.604 99.8412 127.497 99.9034 127.412C99.9655 127.327 100.059 127.27 100.164 127.253C100.185 127.247 100.207 127.245 100.228 127.245H113.155C113.261 127.245 113.363 127.287 113.439 127.361C113.514 127.436 113.556 127.537 113.556 127.642L115.497 162.573C115.502 162.678 115.465 162.781 115.394 162.859C115.324 162.938 115.224 162.987 115.118 162.995H106.058C105.958 162.995 105.862 162.959 105.788 162.893C105.713 162.827 105.667 162.736 105.656 162.638ZM100.703 128.042L106.396 162.2H114.668L112.774 128.042H100.703Z" fill="black"/>
<path fill-rule="evenodd" clip-rule="evenodd" d="M105.299 103.814C105.299 103.814 85.3176 108.815 79.6874 110.15C74.0498 111.486 71.6496 116.503 72.6403 122.078C73.6311 127.643 82.6669 162.596 82.6669 162.596H93.4753L88.5457 123.491L119.07 121.076L119.997 107.312L105.299 103.814Z" fill="black"/>
<path d="M105.306 104.221C103.847 104.586 85.2842 109.232 79.7758 110.535C78.6071 110.78 77.5027 111.261 76.5322 111.95C75.5618 112.638 74.7468 113.518 74.1386 114.534C72.915 116.6 72.5437 119.233 73.036 122.008C73.9694 127.271 82.1044 158.813 82.982 162.202H93.0249L88.1442 123.543C88.132 123.437 88.1625 123.331 88.229 123.248C88.2956 123.164 88.3927 123.11 88.4995 123.097L118.693 120.704L119.579 107.624L105.306 104.221ZM79.5902 109.763C85.1405 108.45 105.145 103.441 105.201 103.425C105.266 103.417 105.331 103.417 105.396 103.425L120.069 106.924C120.167 106.942 120.255 106.995 120.316 107.073C120.376 107.151 120.405 107.248 120.398 107.346L119.471 121.085C119.467 121.182 119.427 121.274 119.359 121.345C119.291 121.415 119.199 121.459 119.101 121.467L88.9959 123.852L93.8763 162.535V162.599C93.8766 162.651 93.8664 162.703 93.8463 162.751C93.8263 162.799 93.7967 162.844 93.7594 162.88C93.722 162.917 93.6774 162.946 93.6286 162.966C93.5797 162.986 93.5274 162.996 93.4746 162.996H82.6659C82.5763 162.996 82.4894 162.966 82.4193 162.911C82.3492 162.856 82.3001 162.779 82.2803 162.693C82.2475 162.598 73.2352 127.732 72.2452 122.142C71.7143 119.186 72.1247 116.362 73.4376 114.127C74.1033 113.02 74.9935 112.061 76.0522 111.31C77.111 110.559 78.3156 110.032 79.5902 109.763Z" fill="black"/>
<path fill-rule="evenodd" clip-rule="evenodd" d="M126.278 108.757C126.278 108.757 116.147 108.924 110.991 107.842C105.846 106.753 102.89 104.757 102.89 104.757L108.223 87.5183C105.605 90.5402 101.666 91.5817 97.8254 91.5817H79.0663V84.6578L95.1815 81.6838C96.0537 81.5508 96.8795 81.2088 97.587 80.6877C98.2945 80.1667 98.8621 79.4824 99.2401 78.6947C101.528 73.9312 104.782 65.9645 106.497 62.7122C109.397 57.2101 116.573 53.9884 122.549 53.9884L132.391 53.9805C143.271 53.9805 144.061 63.2673 143.609 68.4677C142.989 75.7271 139.397 82.979 139.397 82.979L126.278 108.757Z" fill="#1BD9C4"/>
<path d="M126.285 109.155C126.261 109.155 116.104 109.322 110.911 108.233C105.683 107.128 102.671 105.092 102.664 105.084C102.588 105.035 102.532 104.961 102.504 104.876C102.477 104.791 102.479 104.699 102.511 104.615L107.368 88.9284C106.367 89.7735 105.228 90.4456 104.001 90.9162C102.027 91.6482 99.9316 92.0097 97.8231 91.9818H79.0665C78.9606 91.98 78.8598 91.9375 78.7849 91.8636C78.7101 91.7896 78.6671 91.6899 78.6652 91.5853V84.66C78.6675 84.5628 78.7055 84.4696 78.7721 84.3979C78.8387 84.3262 78.9294 84.2809 79.0273 84.2703L95.1105 81.2963C95.9336 81.1534 96.7129 80.8272 97.3894 80.3425C98.0319 79.8676 98.5442 79.2418 98.8797 78.5217C99.9263 76.3433 101.159 73.5441 102.351 70.8171C103.808 67.5006 105.21 64.3047 106.146 62.5319C107.563 59.8362 109.97 57.6819 112.766 56.1625C115.765 54.5262 119.125 53.6442 122.551 53.594H132.393C132.925 53.594 133.423 53.6103 133.891 53.6504C138.16 54.008 140.72 55.9164 142.211 58.381C143.691 60.8222 144.102 63.7955 144.111 66.3402C144.111 67.1196 144.071 67.8506 144.013 68.5031C143.385 75.8339 139.769 83.133 139.762 83.1489L126.642 108.935C126.609 109.001 126.559 109.057 126.496 109.096C126.433 109.135 126.359 109.155 126.285 109.155ZM111.079 107.453C115.726 108.431 124.471 108.384 126.035 108.368L139.033 82.8046C139.042 82.7804 142.593 75.6169 143.213 68.4368C143.263 67.7767 143.302 67.069 143.302 66.3372C143.302 63.9043 142.908 61.0817 141.522 58.7832C140.153 56.5255 137.785 54.7761 133.823 54.4419C133.356 54.4023 132.88 54.3785 132.389 54.3785L122.547 54.3861C119.257 54.4346 116.03 55.2812 113.149 56.8514C110.491 58.2984 108.195 60.3482 106.85 62.9022C105.917 64.683 104.523 67.8472 103.089 71.1312C101.88 73.8825 100.633 76.7211 99.6106 78.8602C99.216 79.6963 98.6178 80.4228 97.8698 80.9751C97.0953 81.531 96.2034 81.9061 95.2609 82.072L79.467 84.9902V91.1845H97.822C99.8283 91.2123 101.822 90.8699 103.702 90.175C105.328 89.5645 106.775 88.5645 107.914 87.2649C107.974 87.1954 108.056 87.1482 108.148 87.1317C108.239 87.1151 108.332 87.1301 108.414 87.1739C108.495 87.2177 108.559 87.2878 108.594 87.3724C108.629 87.4571 108.634 87.5512 108.607 87.6388L103.356 104.582C105.754 105.951 108.364 106.921 111.08 107.453H111.079Z" fill="black"/>
<path d="M79.5099 91.5856C79.5101 91.6431 79.4989 91.6999 79.4768 91.753C79.4546 91.8061 79.422 91.8544 79.3809 91.8951C79.3398 91.9357 79.291 91.968 79.2373 91.9899C79.1835 92.0119 79.1258 92.023 79.0677 92.0228C78.9504 92.022 78.8381 91.9758 78.7551 91.894C78.6721 91.8122 78.6251 91.7014 78.624 91.5856V84.66C78.6257 84.5531 78.6669 84.4504 78.7398 84.3713C78.8127 84.2923 78.9123 84.2423 79.0199 84.2307L95.1024 81.2567C95.9192 81.1141 96.6927 80.7907 97.3649 80.3108C98.0021 79.8395 98.5109 79.2193 98.846 78.506C99.8933 76.3273 101.118 73.5281 102.317 70.8007C103.767 67.4842 105.177 64.2889 106.104 62.516C107.529 59.8124 109.945 57.6495 112.747 56.1232C115.752 54.4859 119.118 53.604 122.549 53.5551H132.391C132.922 53.5551 133.422 53.5709 133.889 53.6106C138.173 53.9685 140.742 55.8847 142.249 58.3655C143.73 60.8064 144.141 63.7883 144.149 66.3405C144.149 67.1203 144.109 67.8513 144.052 68.5035C143.424 75.8426 139.8 83.1495 139.792 83.1751C139.74 83.2797 139.649 83.3598 139.538 83.3979C139.427 83.436 139.305 83.4289 139.199 83.3782C139.093 83.3276 139.012 83.2375 138.974 83.1278C138.935 83.018 138.942 82.8975 138.993 82.793C139.01 82.7692 142.554 75.6132 143.174 68.4334C143.23 67.7813 143.263 67.0737 143.263 66.3427C143.263 63.9173 142.876 61.0947 141.491 58.8128C140.121 56.5626 137.769 54.8136 133.816 54.487C133.348 54.4473 132.874 54.4232 132.39 54.4232L122.549 54.4312C119.266 54.4786 116.046 55.3252 113.174 56.8961C110.516 58.3352 108.23 60.3787 106.892 62.923C105.95 64.7038 104.564 67.8685 103.123 71.1522C101.914 73.9038 100.674 76.7422 99.6435 78.8813C99.2467 79.7224 98.6469 80.4543 97.8963 81.0122C97.1159 81.5752 96.2145 81.9533 95.2624 82.1171L79.5085 85.0273L79.5099 91.5856Z" fill="white"/>
<path fill-rule="evenodd" clip-rule="evenodd" d="M111.335 23.8389C112.555 26.6109 113.18 29.6025 113.171 32.625C113.09 36.4494 112.052 40.2504 112.591 42.7392C113.799 48.3209 116.69 51.1355 121.128 50.3482C121.942 51.9863 121.354 54.7693 121.354 54.7693C121.354 54.7693 124.713 56.6218 127.757 56.3752C128.645 56.3088 129.508 56.0519 130.286 55.6223C131.063 55.1927 131.736 54.6008 132.259 53.8879V47.9006L127.378 24.7863L111.335 23.8389Z" fill="white"/>
<path d="M112.647 61.6783C112.541 61.6783 112.439 61.6365 112.364 61.5622C112.288 61.4878 112.246 61.3869 112.246 61.2818C112.248 61.1771 112.29 61.0773 112.365 61.0033C112.44 60.9293 112.541 60.8869 112.647 60.8852C112.831 60.8888 113.014 60.9074 113.195 60.9408C114.306 61.1474 115.658 61.9667 116.721 63.2785C117.924 64.7622 118.573 66.6098 118.559 68.5107C118.556 69.0923 118.499 69.6723 118.389 70.2437C117.931 72.6925 116.674 75.6266 115.16 78.4178C113.275 81.8843 110.996 85.1445 109.329 86.9649C107.895 88.5982 106.101 89.8849 104.086 90.7263C102.048 91.5604 99.6482 91.9825 96.6837 91.9825C96.5775 91.9818 96.4758 91.9397 96.4007 91.8655C96.3256 91.7913 96.2832 91.6909 96.2824 91.5859C96.2821 91.5338 96.2923 91.4821 96.3124 91.4339C96.3324 91.3856 96.362 91.3417 96.3993 91.3048C96.4366 91.2679 96.4809 91.2387 96.5297 91.2189C96.5786 91.1991 96.6309 91.189 96.6837 91.1894C99.542 91.1894 101.839 90.793 103.772 89.997C105.679 89.1988 107.377 87.9801 108.734 86.4342C110.361 84.6534 112.608 81.457 114.452 78.0464C115.934 75.3186 117.158 72.4645 117.601 70.1029C117.702 69.5787 117.753 69.0463 117.754 68.5128C117.767 66.7918 117.182 65.1186 116.095 63.7735C115.161 62.6131 113.992 61.899 113.051 61.7223C112.918 61.6959 112.783 61.6811 112.647 61.6783Z" fill="black"/>
<path fill-rule="evenodd" clip-rule="evenodd" d="M59.1479 171.439H62.1843V96.6587H59.1479V171.439Z" fill="black"/>
<path d="M59.5511 171.043H61.7825V97.0564H59.5511V171.043ZM62.185 171.838H59.149C59.0962 171.838 59.0439 171.828 58.995 171.808C58.9462 171.789 58.9018 171.759 58.8644 171.723C58.8271 171.686 58.7975 171.642 58.7775 171.593C58.7574 171.545 58.7472 171.493 58.7475 171.441V96.6575C58.7481 96.5525 58.7907 96.4522 58.8658 96.378C58.941 96.3037 59.0427 96.2617 59.149 96.2611H62.185C62.2913 96.2616 62.3931 96.3034 62.4683 96.3776C62.5435 96.4519 62.5859 96.5525 62.5864 96.6575V171.439C62.5872 171.491 62.5773 171.543 62.5574 171.592C62.5375 171.641 62.508 171.685 62.4706 171.722C62.4332 171.759 62.3887 171.788 62.3396 171.808C62.2906 171.828 62.238 171.838 62.185 171.838Z" fill="black"/>
<path fill-rule="evenodd" clip-rule="evenodd" d="M93.4824 162.597H82.6744L70.4 167.734V171.439H93.4824V162.597Z" fill="white"/>
<path d="M93.0795 162.996H82.7526L70.801 167.996V171.042H93.0785L93.0795 162.996ZM82.6735 162.2H93.4819C93.5347 162.2 93.5869 162.21 93.6358 162.23C93.6847 162.249 93.7293 162.279 93.7666 162.315C93.804 162.352 93.8332 162.396 93.8532 162.444C93.8732 162.493 93.8835 162.544 93.8831 162.596V171.439C93.8836 171.491 93.8736 171.543 93.8536 171.591C93.8335 171.639 93.804 171.684 93.7666 171.72C93.7292 171.757 93.6847 171.787 93.6358 171.806C93.5869 171.826 93.5347 171.836 93.4819 171.835H70.398C70.3453 171.835 70.2931 171.825 70.2444 171.805C70.1957 171.785 70.1516 171.756 70.1143 171.719C70.077 171.682 70.0475 171.639 70.0274 171.591C70.0072 171.543 69.9967 171.491 69.9967 171.439V167.733H70.0049C70.0043 167.655 70.0269 167.579 70.0698 167.514C70.1127 167.449 70.1737 167.399 70.2458 167.368L82.4885 162.245C82.545 162.214 82.6088 162.198 82.6735 162.199V162.2Z" fill="black"/>
<path d="M103.378 104.414C103.347 104.515 103.277 104.6 103.182 104.65C103.087 104.7 102.977 104.711 102.874 104.68C102.771 104.649 102.686 104.579 102.635 104.486C102.584 104.393 102.573 104.283 102.604 104.182L106.591 91.4523C106.627 91.3582 106.698 91.2812 106.789 91.2368C106.881 91.1925 106.986 91.1843 107.083 91.2136C107.181 91.2429 107.263 91.3074 107.314 91.3945C107.365 91.4816 107.38 91.5845 107.357 91.6825L103.378 104.414Z" fill="white"/>
<path d="M83.0584 162.502C83.0843 162.602 83.0692 162.708 83.0164 162.797C82.9636 162.887 82.8776 162.952 82.7765 162.979C82.674 163.005 82.5649 162.991 82.4729 162.939C82.381 162.887 82.3133 162.801 82.2848 162.701C82.261 162.605 73.6594 129.862 72.033 122.658C71.243 119.152 71.8316 116.25 73.369 113.96C75.0841 111.416 77.9759 109.642 81.4473 108.632C87.8906 106.756 102.387 103.965 102.427 103.958C102.479 103.947 102.532 103.947 102.584 103.956C102.636 103.966 102.686 103.986 102.73 104.015C102.774 104.043 102.812 104.08 102.841 104.124C102.871 104.167 102.891 104.216 102.902 104.267C102.921 104.371 102.899 104.477 102.84 104.564C102.781 104.652 102.691 104.713 102.588 104.736C102.539 104.744 88.0666 107.535 81.6715 109.395C78.3778 110.357 75.6395 112.018 74.0361 114.405C72.6108 116.52 72.0712 119.207 72.8124 122.492C74.441 129.664 83.034 162.407 83.0584 162.502Z" fill="white"/>
<path d="M105.908 162.534C105.923 162.638 105.896 162.744 105.832 162.829C105.769 162.914 105.674 162.971 105.569 162.988C105.517 162.996 105.465 162.994 105.414 162.983C105.363 162.971 105.314 162.949 105.272 162.919C105.229 162.889 105.193 162.851 105.166 162.807C105.138 162.763 105.12 162.714 105.111 162.663L99.8346 130.532C99.8192 130.428 99.8454 130.323 99.9073 130.239C99.9691 130.154 100.062 130.097 100.166 130.079C100.272 130.064 100.38 130.09 100.467 130.152C100.554 130.215 100.613 130.308 100.632 130.412L105.908 162.534Z" fill="white"/>
<path d="M131.855 47.8822C131.855 47.7771 131.898 47.6762 131.973 47.6018C132.048 47.5275 132.15 47.4857 132.257 47.4857C132.31 47.4852 132.362 47.4951 132.411 47.5149C132.46 47.5347 132.504 47.5639 132.542 47.6008C132.579 47.6377 132.608 47.6817 132.628 47.73C132.649 47.7783 132.659 47.83 132.658 47.8822V53.8691C132.659 53.9517 132.633 54.0324 132.585 54.0999C132.345 54.4892 129.742 58.3618 123.034 55.9365C122.934 55.8991 122.854 55.8251 122.809 55.7302C122.764 55.6352 122.758 55.5266 122.792 55.4274C122.81 55.378 122.837 55.3326 122.872 55.2937C122.908 55.2547 122.951 55.2231 122.999 55.2009C123.047 55.1787 123.099 55.1662 123.152 55.1641C123.205 55.162 123.258 55.1705 123.307 55.1889C129.138 57.2963 131.475 54.3143 131.853 53.7577L131.855 47.8822Z" fill="black"/>
<path d="M41.1052 51.8746C40.9985 51.8746 40.8961 51.8328 40.8207 51.7582C40.7452 51.6837 40.7029 51.5825 40.7029 51.4771C40.7029 51.3717 40.7452 51.2706 40.8207 51.196C40.8961 51.1215 40.9985 51.0797 41.1052 51.0797H54.3698C54.4765 51.0797 54.5787 51.1215 54.6542 51.196C54.7296 51.2706 54.7721 51.3717 54.7721 51.4771C54.7721 51.5825 54.7296 51.6837 54.6542 51.7582C54.5787 51.8328 54.4765 51.8746 54.3698 51.8746H41.1052Z" fill="black"/>
<path d="M57.0778 51.8746C56.9711 51.8746 56.8687 51.8328 56.7932 51.7582C56.7178 51.6837 56.6754 51.5825 56.6754 51.4771C56.6754 51.3717 56.7178 51.2706 56.7932 51.196C56.8687 51.1215 56.9711 51.0797 57.0778 51.0797H59.3734C59.4801 51.0797 59.5824 51.1215 59.6578 51.196C59.7333 51.2706 59.7758 51.3717 59.7758 51.4771C59.7758 51.5825 59.7333 51.6837 59.6578 51.7582C59.5824 51.8328 59.4801 51.8746 59.3734 51.8746H57.0778Z" fill="#1BD9C4"/>
<path d="M62.8584 51.8746C62.7517 51.8746 62.6492 51.8328 62.5738 51.7582C62.4984 51.6837 62.456 51.5825 62.456 51.4771C62.456 51.3717 62.4984 51.2706 62.5738 51.196C62.6492 51.1215 62.7517 51.0797 62.8584 51.0797H66.7322C66.8389 51.0797 66.9413 51.1215 67.0167 51.196C67.0922 51.2706 67.1345 51.3717 67.1345 51.4771C67.1345 51.5825 67.0922 51.6837 67.0167 51.7582C66.9413 51.8328 66.8389 51.8746 66.7322 51.8746H62.8584Z" fill="black"/>
<path d="M69.775 51.8746C69.6683 51.8746 69.5658 51.8328 69.4903 51.7582C69.4149 51.6837 69.3727 51.5825 69.3727 51.4771C69.3727 51.3717 69.4149 51.2706 69.4903 51.196C69.5658 51.1215 69.6683 51.0797 69.775 51.0797H74.5018C74.6085 51.0797 74.7111 51.1215 74.7865 51.196C74.862 51.2706 74.9041 51.3717 74.9041 51.4771C74.9041 51.5825 74.862 51.6837 74.7865 51.7582C74.7111 51.8328 74.6085 51.8746 74.5018 51.8746H69.775Z" fill="#1BD9C4"/>
<path d="M41.1056 55.213C40.9988 55.213 40.8963 55.1711 40.8208 55.0965C40.7454 55.0219 40.7031 54.9209 40.7031 54.8154C40.7031 54.71 40.7454 54.6089 40.8208 54.5343C40.8963 54.4597 40.9988 54.4178 41.1056 54.4178H47.1539C47.2606 54.4178 47.3631 54.4597 47.4386 54.5343C47.5141 54.6089 47.5564 54.71 47.5564 54.8154C47.5564 54.9209 47.5141 55.0219 47.4386 55.0965C47.3631 55.1711 47.2606 55.213 47.1539 55.213H41.1056Z" fill="black"/>
<path d="M50.679 55.213C50.5723 55.213 50.4698 55.1711 50.3943 55.0965C50.3188 55.0219 50.2765 54.9209 50.2765 54.8154C50.2765 54.71 50.3188 54.6089 50.3943 54.5343C50.4698 54.4597 50.5723 54.4178 50.679 54.4178H52.9743C53.0811 54.4178 53.1834 54.4597 53.2589 54.5343C53.3344 54.6089 53.3768 54.71 53.3768 54.8154C53.3768 54.9209 53.3344 55.0219 53.2589 55.0965C53.1834 55.1711 53.0811 55.213 52.9743 55.213H50.679Z" fill="#1BD9C4"/>
<path d="M56.2892 55.213C56.1824 55.213 56.0799 55.1711 56.0045 55.0965C55.929 55.0219 55.8867 54.9209 55.8867 54.8154C55.8867 54.71 55.929 54.6089 56.0045 54.5343C56.0799 54.4597 56.1824 54.4178 56.2892 54.4178H60.171C60.2778 54.4178 60.3803 54.4597 60.4558 54.5343C60.5312 54.6089 60.5735 54.71 60.5735 54.8154C60.5735 54.9209 60.5312 55.0219 60.4558 55.0965C60.3803 55.1711 60.2778 55.213 60.171 55.213H56.2892Z" fill="black"/>
<path d="M63.2444 55.213C63.1377 55.213 63.0352 55.1711 62.9597 55.0965C62.8842 55.0219 62.8419 54.9209 62.8419 54.8154C62.8419 54.71 62.8842 54.6089 62.9597 54.5343C63.0352 54.4597 63.1377 54.4178 63.2444 54.4178H69.8971C70.0039 54.4178 70.1062 54.4597 70.1817 54.5343C70.2572 54.6089 70.2996 54.71 70.2996 54.8154C70.2996 54.9209 70.2572 55.0219 70.1817 55.0965C70.1062 55.1711 70.0039 55.213 69.8971 55.213H63.2444Z" fill="black"/>
<path d="M41.1052 58.5983C40.9987 58.5983 40.8966 58.5565 40.8214 58.4822C40.7461 58.4078 40.7038 58.3069 40.7038 58.2018C40.7038 58.0966 40.7461 57.9957 40.8214 57.9214C40.8966 57.847 40.9987 57.8052 41.1052 57.8052H54.3698C54.4763 57.8052 54.5784 57.847 54.6536 57.9214C54.7289 57.9957 54.7711 58.0966 54.7711 58.2018C54.7711 58.3069 54.7289 58.4078 54.6536 58.4822C54.5784 58.5565 54.4763 58.5983 54.3698 58.5983H41.1052Z" fill="#1BD9C4"/>
<path d="M41.2023 65.3473C41.1495 65.3477 41.097 65.3377 41.0482 65.3179C40.9993 65.2982 40.9549 65.2689 40.9176 65.232C40.8802 65.1951 40.8506 65.1513 40.8306 65.103C40.8106 65.0547 40.8005 65.0029 40.8009 64.9508C40.8015 64.8458 40.844 64.7453 40.9192 64.6711C40.9943 64.5969 41.096 64.5549 41.2023 64.5542H50.6813C50.7871 64.5562 50.888 64.5987 50.9628 64.6727C51.0376 64.7466 51.0805 64.8462 51.0825 64.9508C51.0819 65.0557 51.0394 65.1562 50.9642 65.2305C50.8891 65.3047 50.7875 65.3467 50.6813 65.3473H41.2023Z" fill="black"/>
<path d="M41.2026 68.9475C41.0958 68.9475 40.9934 68.9056 40.9179 68.831C40.8424 68.7564 40.8 68.6552 40.8 68.5497C40.8 68.4442 40.8424 68.343 40.9179 68.2684C40.9934 68.1938 41.0958 68.1519 41.2026 68.1519H44.1259C44.2327 68.1519 44.3351 68.1938 44.4106 68.2684C44.4861 68.343 44.5285 68.4442 44.5285 68.5497C44.5285 68.6552 44.4861 68.7564 44.4106 68.831C44.3351 68.9056 44.2327 68.9475 44.1259 68.9475H41.2026Z" fill="black"/>
<path d="M47.7491 68.9475C47.6423 68.9475 47.5399 68.9056 47.4644 68.831C47.3889 68.7564 47.3464 68.6552 47.3464 68.5497C47.3464 68.4442 47.3889 68.343 47.4644 68.2684C47.5399 68.1938 47.6423 68.1519 47.7491 68.1519H50.6809C50.7877 68.1519 50.8901 68.1938 50.9656 68.2684C51.0411 68.343 51.0836 68.4442 51.0836 68.5497C51.0836 68.6552 51.0411 68.7564 50.9656 68.831C50.8901 68.9056 50.7877 68.9475 50.6809 68.9475H47.7491Z" fill="black"/>
<path d="M54.1552 68.9475C54.0484 68.9475 53.946 68.9056 53.8705 68.831C53.7949 68.7564 53.7525 68.6552 53.7525 68.5497C53.7525 68.4442 53.7949 68.343 53.8705 68.2684C53.946 68.1938 54.0484 68.1519 54.1552 68.1519H64.8018C64.9086 68.1519 65.011 68.1938 65.0865 68.2684C65.162 68.343 65.2045 68.4442 65.2045 68.5497C65.2045 68.6552 65.162 68.7564 65.0865 68.831C65.011 68.9056 64.9086 68.9475 64.8018 68.9475H54.1552Z" fill="#1BD9C4"/>
<path d="M53.0834 87.8146H79.0893V88.6077H53.0834V87.8146Z" fill="white"/>
<path fill-rule="evenodd" clip-rule="evenodd" d="M43.757 91.5784H50.5382C51.2148 91.5774 51.8635 91.3115 52.3422 90.8392C52.821 90.3668 53.0907 89.7263 53.0925 89.0579V75.9139H41.2026V89.0568C41.2054 89.725 41.4755 90.3651 41.954 90.8374C42.4325 91.3098 43.0806 91.5762 43.757 91.5784Z" fill="#1BD9C4"/>
<path d="M43.7567 91.1816H50.5382C51.1078 91.1796 51.6535 90.9552 52.0563 90.5574C52.4591 90.1596 52.6864 89.6206 52.6887 89.0579V76.3126H41.6069V89.0579C41.6091 89.6205 41.8363 90.1594 42.2389 90.5572C42.6416 90.955 43.1872 91.1795 43.7567 91.1816ZM50.5382 91.9765H43.7567C42.9738 91.9729 42.2241 91.6641 41.6705 91.1173C41.117 90.5705 40.8044 89.8298 40.8009 89.0565V75.9139C40.8005 75.8617 40.8106 75.8099 40.8306 75.7617C40.8506 75.7134 40.8802 75.6695 40.9176 75.6326C40.9549 75.5957 40.9993 75.5665 41.0482 75.5467C41.097 75.5269 41.1495 75.517 41.2023 75.5173H53.0892C53.142 75.517 53.1945 75.5269 53.2433 75.5467C53.2922 75.5665 53.3366 75.5957 53.3739 75.6326C53.4113 75.6695 53.4409 75.7134 53.4609 75.7617C53.4809 75.8099 53.491 75.8617 53.4906 75.9139V89.0572C53.4906 89.8316 53.1792 90.5743 52.6249 91.1219C52.0705 91.6695 51.3187 91.9772 50.5348 91.9772L50.5382 91.9765Z" fill="black"/>
<path d="M40.7062 80.3742H38.6689C38.5548 80.374 38.4419 80.3965 38.3368 80.4404C38.2317 80.4842 38.1365 80.5485 38.0571 80.6294C37.9746 80.7074 37.9092 80.8011 37.8648 80.9051C37.8204 81.009 37.798 81.1207 37.7991 81.2335V84.6222C37.8005 84.8496 37.8933 85.0671 38.0571 85.227C38.1367 85.3076 38.2319 85.3716 38.337 85.4153C38.4421 85.4591 38.5549 85.4816 38.6689 85.4815H40.7062V80.3742ZM38.6689 79.581H41.5116V86.2757H38.6689C38.225 86.2749 37.7996 86.1003 37.4856 85.7903C37.1717 85.4802 36.9947 85.06 36.9937 84.6215V81.2328C36.9949 80.7944 37.1719 80.3743 37.4858 80.0644C37.7998 79.7545 38.2251 79.5801 38.6689 79.5793V79.581Z" fill="black"/>
<path d="M44.1022 78.7439C44.1022 78.6384 44.1446 78.5372 44.2202 78.4626C44.2957 78.388 44.3981 78.3461 44.5049 78.3461C44.6117 78.3461 44.7141 78.388 44.7896 78.4626C44.8651 78.5372 44.9076 78.6384 44.9076 78.7439V88.357C44.9076 88.4625 44.8651 88.5636 44.7896 88.6382C44.7141 88.7128 44.6117 88.7548 44.5049 88.7548C44.3981 88.7548 44.2957 88.7128 44.2202 88.6382C44.1446 88.5636 44.1022 88.4625 44.1022 88.357V78.7439Z" fill="white"/>
<path d="M137.605 129.862C137.585 129.813 137.575 129.761 137.575 129.709C137.576 129.657 137.587 129.605 137.608 129.557C137.629 129.508 137.66 129.465 137.698 129.428C137.736 129.392 137.781 129.364 137.831 129.345C137.93 129.306 138.04 129.308 138.138 129.35C138.236 129.392 138.314 129.47 138.354 129.568L155.228 171.295C155.267 171.394 155.265 171.503 155.222 171.6C155.18 171.697 155.1 171.773 155.001 171.813C154.902 171.849 154.792 171.846 154.694 171.804C154.597 171.763 154.519 171.686 154.477 171.589L137.605 129.862Z" fill="#1BD9C4"/>
<path d="M70.4 167.335H93.4824V168.131H70.4V167.335Z" fill="black"/>
<path d="M92.0133 167.335H115.094V168.131H92.0133V167.335Z" fill="black"/>
<path d="M112.536 129.862C112.498 129.763 112.5 129.654 112.542 129.557C112.584 129.461 112.663 129.385 112.761 129.344C112.81 129.325 112.863 129.315 112.916 129.316C112.969 129.316 113.022 129.327 113.07 129.348C113.119 129.369 113.163 129.399 113.2 129.437C113.237 129.474 113.266 129.519 113.285 129.568L130.158 171.295C130.177 171.343 130.187 171.394 130.186 171.446C130.185 171.498 130.175 171.549 130.154 171.597C130.133 171.645 130.103 171.688 130.066 171.724C130.028 171.76 129.984 171.789 129.936 171.808C129.887 171.827 129.835 171.837 129.782 171.836C129.73 171.836 129.678 171.825 129.63 171.805C129.582 171.784 129.538 171.755 129.501 171.718C129.465 171.681 129.436 171.637 129.416 171.589L112.536 129.862Z" fill="black"/>
<path d="M96.1934 129.569C96.2127 129.52 96.2418 129.476 96.2786 129.438C96.3154 129.4 96.3593 129.37 96.4079 129.349C96.4566 129.329 96.5089 129.318 96.5619 129.317C96.6149 129.316 96.6677 129.326 96.7169 129.346C96.8155 129.386 96.8943 129.462 96.9364 129.559C96.9786 129.655 96.9808 129.764 96.9425 129.863L80.0614 171.59C80.0223 171.687 79.9464 171.764 79.85 171.806C79.7537 171.848 79.6448 171.851 79.5464 171.814C79.4476 171.774 79.3683 171.697 79.3262 171.6C79.2841 171.504 79.2823 171.395 79.3212 171.296L96.1934 129.569Z" fill="#1BD9C4"/>
<path d="M96.1929 129.586C96.2122 129.538 96.2409 129.493 96.2777 129.455C96.3145 129.418 96.3585 129.388 96.4071 129.367C96.4556 129.346 96.5081 129.335 96.561 129.334C96.6139 129.334 96.6662 129.343 96.7153 129.363C96.8139 129.403 96.8927 129.479 96.9348 129.576C96.977 129.673 96.9792 129.782 96.9409 129.88L91.7227 142.776C91.7034 142.825 91.6744 142.869 91.6375 142.907C91.6007 142.945 91.5568 142.975 91.5082 142.995C91.4595 143.016 91.4072 143.028 91.3542 143.028C91.3013 143.029 91.2487 143.019 91.1996 143C91.1009 142.96 91.0219 142.883 90.9797 142.786C90.9375 142.69 90.9352 142.58 90.9736 142.482L96.1929 129.586Z" fill="black"/>
<path d="M121.262 129.569C121.281 129.521 121.309 129.476 121.345 129.439C121.381 129.401 121.424 129.371 121.472 129.35C121.52 129.33 121.572 129.319 121.624 129.318C121.677 129.317 121.729 129.326 121.778 129.346C121.827 129.365 121.872 129.393 121.91 129.43C121.948 129.466 121.978 129.509 121.999 129.557C122.02 129.606 122.031 129.658 122.032 129.71C122.033 129.762 122.023 129.814 122.003 129.863L105.13 171.59C105.09 171.688 105.013 171.766 104.915 171.807C104.817 171.849 104.706 171.852 104.606 171.814C104.509 171.773 104.431 171.696 104.389 171.599C104.347 171.503 104.344 171.395 104.381 171.296L121.262 129.569Z" fill="black"/>
<path d="M114.321 146.727C114.34 146.679 114.368 146.635 114.405 146.598C114.441 146.561 114.485 146.532 114.533 146.512C114.581 146.492 114.632 146.481 114.685 146.482C114.737 146.482 114.788 146.492 114.836 146.513C114.885 146.531 114.93 146.559 114.968 146.594C115.006 146.63 115.036 146.672 115.057 146.72C115.078 146.767 115.089 146.818 115.09 146.87C115.091 146.921 115.082 146.972 115.063 147.02L105.132 171.59C105.091 171.687 105.013 171.765 104.916 171.806C104.818 171.848 104.707 171.85 104.608 171.813C104.51 171.772 104.433 171.695 104.391 171.599C104.349 171.503 104.346 171.394 104.383 171.296L114.321 146.727Z" fill="#1BD9C4"/>
<path fill-rule="evenodd" clip-rule="evenodd" d="M156.239 73.0278H132.94C130.66 73.0278 128.292 74.8724 127.68 77.1225L116.258 119.191H91.3638C89.9479 119.194 88.591 119.752 87.5903 120.741C86.5896 121.731 86.0267 123.072 86.0248 124.47C86.0283 125.868 86.5922 127.207 87.5928 128.195C88.5933 129.183 89.9491 129.739 91.3638 129.742H140.846C143.126 129.742 145.494 127.898 146.105 125.648L159.273 77.1215C159.887 74.8728 158.518 73.0278 156.239 73.0278Z" fill="#1BD9C4"/>
<path d="M156.238 73.4255H132.938C131.839 73.4589 130.782 73.8534 129.935 74.5469C129.037 75.2193 128.382 76.1586 128.066 77.2264L116.655 119.295C116.63 119.38 116.578 119.454 116.507 119.507C116.435 119.559 116.349 119.588 116.26 119.589H91.3654C90.063 119.6 88.8178 120.119 87.9008 121.032C86.9839 121.946 86.4693 123.18 86.4693 124.467C86.4693 125.754 86.9839 126.988 87.9008 127.902C88.8178 128.816 90.063 129.334 91.3654 129.345H140.847C141.945 129.31 143.001 128.919 143.852 128.232C144.744 127.552 145.398 126.612 145.72 125.544L158.887 77.0263C158.972 76.7151 159.016 76.3944 159.017 76.0721C159.029 75.4903 158.848 74.9206 158.501 74.4499C158.155 73.9944 157.66 73.6715 157.101 73.5362C156.819 73.4615 156.529 73.4242 156.238 73.4255ZM132.938 72.6323H156.238C156.6 72.6315 156.96 72.677 157.309 72.7675C158.041 72.9557 158.688 73.3812 159.146 73.9759C159.597 74.5842 159.834 75.3215 159.822 76.0754C159.822 76.4654 159.768 76.8534 159.662 77.2289L146.493 125.755C146.128 126.986 145.378 128.071 144.351 128.856C143.36 129.656 142.128 130.109 140.848 130.143H91.3657C89.8427 130.143 88.3819 129.546 87.305 128.482C86.2281 127.418 85.6234 125.975 85.6234 124.47C85.6234 122.966 86.2281 121.523 87.305 120.459C88.3819 119.395 89.8427 118.798 91.3657 118.798H115.954L127.294 77.0296C127.651 75.7927 128.402 74.7023 129.436 73.9204C130.427 73.1193 131.658 72.6655 132.938 72.6302V72.6323Z" fill="black"/>
<path d="M117.665 129.847C117.636 129.948 117.569 130.033 117.476 130.085C117.384 130.138 117.275 130.152 117.173 130.125C117.122 130.113 117.073 130.091 117.031 130.06C116.989 130.03 116.953 129.991 116.926 129.947C116.899 129.902 116.881 129.853 116.873 129.801C116.866 129.75 116.869 129.698 116.882 129.647L130.275 78.9992C130.618 77.807 131.342 76.7559 132.337 76.0018C133.295 75.2244 134.488 74.7851 135.727 74.7534H159.164C159.27 74.7553 159.371 74.7978 159.446 74.8717C159.521 74.9457 159.564 75.0454 159.566 75.15C159.565 75.255 159.523 75.3555 159.447 75.4297C159.372 75.5039 159.27 75.5459 159.164 75.5466H135.727C134.666 75.5798 133.646 75.9602 132.828 76.628C131.971 77.272 131.35 78.1736 131.057 79.1969L117.665 129.847Z" fill="black"/>
<path d="M132.949 72.5913C133.066 72.592 133.178 72.6382 133.261 72.7199C133.344 72.8017 133.392 72.9123 133.393 73.0282C133.393 73.0857 133.382 73.1428 133.359 73.1959C133.337 73.2491 133.304 73.2973 133.263 73.3379C133.221 73.3785 133.172 73.4106 133.118 73.4325C133.064 73.4543 133.007 73.4653 132.949 73.465C131.858 73.5006 130.81 73.8922 129.969 74.5783C129.08 75.2484 128.431 76.1816 128.117 77.2419L116.695 119.304C116.671 119.397 116.616 119.48 116.538 119.539C116.461 119.598 116.366 119.629 116.269 119.628H91.3743C90.0766 119.635 88.834 120.147 87.9169 121.054C86.9998 121.961 86.4823 123.189 86.4776 124.471C86.4763 124.587 86.4293 124.697 86.3464 124.779C86.2636 124.861 86.1517 124.907 86.0346 124.908C85.9764 124.908 85.9188 124.897 85.865 124.875C85.8111 124.854 85.7622 124.821 85.721 124.781C85.6798 124.74 85.6467 124.692 85.6244 124.639C85.6021 124.586 85.5909 124.529 85.5909 124.471C85.5949 122.957 86.2053 121.505 87.289 120.434C88.3727 119.363 89.8413 118.759 91.3743 118.754H115.93L127.262 77.01C127.627 75.7681 128.383 74.6735 129.421 73.8854C130.42 73.0811 131.66 72.6262 132.949 72.5913Z" fill="white"/>
<path d="M151 92.9565C151.106 92.9565 151.208 92.9984 151.284 93.0727C151.359 93.1471 151.401 93.2478 151.401 93.3529C151.401 93.4581 151.359 93.5591 151.284 93.6335C151.208 93.7079 151.106 93.7497 151 93.7497H130.971C130.864 93.7497 130.762 93.7079 130.687 93.6335C130.612 93.5591 130.569 93.4581 130.569 93.3529C130.569 93.2478 130.612 93.1471 130.687 93.0727C130.762 92.9984 130.864 92.9565 130.971 92.9565H151Z" fill="black"/>
<path d="M146.549 111.15C146.655 111.151 146.758 111.193 146.833 111.267C146.909 111.341 146.951 111.441 146.952 111.547C146.95 111.651 146.906 111.751 146.831 111.825C146.756 111.899 146.655 111.942 146.549 111.943H126.512C126.405 111.943 126.303 111.901 126.228 111.826C126.153 111.752 126.111 111.652 126.11 111.547C126.11 111.494 126.12 111.443 126.14 111.395C126.16 111.346 126.19 111.303 126.227 111.266C126.264 111.229 126.308 111.2 126.357 111.18C126.406 111.16 126.459 111.15 126.512 111.15H146.549Z" fill="black"/>
<path fill-rule="evenodd" clip-rule="evenodd" d="M139.929 15.3152C139.929 15.3152 136.153 15.8639 134.55 17.5019C132.956 19.14 131.741 18.0823 131.741 18.0823C131.628 15.4345 130.677 13.5661 129.517 11.5936C131.362 11.1642 133.497 13.1361 132.996 16.1717C132.996 16.1735 135.235 13.0968 139.929 15.3152Z" fill="black"/>
<path fill-rule="evenodd" clip-rule="evenodd" d="M110.19 30.1427C113.992 26.5966 118.148 25.6186 120.983 27.9481C120.201 32.4404 119.026 42.0376 121.394 47.5318C122.384 49.8458 124.873 50.6486 127.561 50.6486C129.688 50.6486 131.628 49.623 133.287 47.5714C137.354 42.5146 140.19 32.5118 139.907 25.4113C139.722 20.4817 136.653 17.2215 132.595 17.5167C130.356 14.2331 122.786 13.9306 117.244 16.1332C111.929 18.2492 107.886 22.8688 110.19 30.1427Z" fill="black"/>
<path fill-rule="evenodd" clip-rule="evenodd" d="M118.126 22.0022C118.126 22.0022 113.866 26.0097 114.47 31.3388C114.851 34.5491 116.332 37.5342 118.667 39.799C118.667 39.799 119.384 34.0186 122.895 31.1005C126.398 28.1903 123.652 21.893 123.652 21.893L118.126 22.0022Z" fill="black"/>
<path d="M4.3574 171.836C4.2507 171.836 4.14836 171.794 4.07291 171.72C3.99746 171.645 3.95508 171.544 3.95508 171.439C3.95508 171.334 3.99746 171.232 4.07291 171.157C4.14836 171.083 4.2507 171.041 4.3574 171.041H199.203C199.31 171.041 199.412 171.083 199.488 171.157C199.563 171.232 199.606 171.334 199.606 171.439C199.606 171.544 199.563 171.645 199.488 171.72C199.412 171.794 199.31 171.836 199.203 171.836H4.3574Z" fill="black"/>
<path fill-rule="evenodd" clip-rule="evenodd" d="M29.0113 152.204C29.0113 152.204 32.0557 141.231 24.9845 132.859C17.9052 124.493 6.39618 126.14 6.39618 126.14C6.39618 126.14 12.6781 131.094 16.3827 137.081C20.0873 143.068 22.7293 153.587 22.7293 153.587L29.0113 152.204Z" fill="#1BD9C4"/>
<path d="M28.681 151.87C29.0674 150.271 31.0245 140.627 24.6703 133.113C18.936 126.339 10.2456 126.268 7.38691 126.444C9.17498 127.954 13.7576 132.082 16.7214 136.876C20.0475 142.251 22.5122 151.196 23.0194 153.12L28.681 151.87ZM25.2902 132.604C32.4984 141.136 29.4057 152.275 29.3977 152.308C29.3785 152.379 29.3397 152.443 29.2856 152.493C29.2316 152.544 29.1644 152.579 29.0915 152.594L22.8417 153.968L22.8256 153.977C22.7213 154 22.6116 153.983 22.52 153.928C22.4283 153.873 22.3618 153.786 22.3345 153.683C22.3264 153.65 19.7089 143.227 16.0364 137.288C12.372 131.364 6.16264 126.466 6.14731 126.45C6.0653 126.388 6.0106 126.296 5.99441 126.195C5.98157 126.09 6.01048 125.984 6.07506 125.9C6.13964 125.815 6.23485 125.759 6.3407 125.742C6.37209 125.742 18.0737 124.073 25.2906 132.604L25.2902 132.604Z" fill="black"/>
<path d="M15.384 130.123C15.3328 130.11 15.2846 130.087 15.2424 130.056C15.2001 130.024 15.1645 129.985 15.1377 129.94C15.1108 129.895 15.0931 129.845 15.0858 129.794C15.0784 129.742 15.0814 129.689 15.0946 129.639C15.1078 129.588 15.131 129.54 15.1629 129.499C15.1947 129.457 15.2345 129.422 15.2801 129.395C15.3257 129.368 15.3761 129.351 15.4285 129.344C15.4809 129.337 15.5342 129.34 15.5854 129.353C15.6175 129.36 26.2409 131.882 26.909 150.455C26.9111 150.507 26.9028 150.558 26.8847 150.607C26.8666 150.656 26.8389 150.7 26.8034 150.738C26.7315 150.815 26.6318 150.86 26.5261 150.864C26.4203 150.868 26.3173 150.831 26.2395 150.76C26.1618 150.689 26.1159 150.591 26.1117 150.486C25.46 132.51 15.4084 130.132 15.384 130.123Z" fill="black"/>
<path fill-rule="evenodd" clip-rule="evenodd" d="M58.2545 139.798C52.0853 133.962 43.0971 134.907 36.2999 138.947C31.991 141.506 28.4718 145.427 27.2866 150.468C25.3617 158.713 35.1552 156.645 35.1552 156.645C34.4633 144.314 47.9859 139.798 58.2545 139.798Z" fill="#1BD9C4"/>
<path d="M57.2241 139.416C54.697 137.341 51.5374 136.165 48.2524 136.076C44.2252 135.926 40.0615 137.174 36.5098 139.289C34.288 140.588 32.3276 142.28 30.7271 144.281C29.2657 146.131 28.2272 148.271 27.683 150.555C26.1044 157.322 33.1034 156.583 34.7462 156.321C34.7382 156.122 34.7298 155.931 34.7298 155.749C34.7298 150.142 37.6776 146.191 41.8657 143.575C46.0052 140.99 51.3611 139.725 56.2579 139.456C56.5877 139.44 56.9019 139.423 57.2241 139.416ZM48.2761 135.29C52.0969 135.388 55.7448 136.884 58.5126 139.487C58.5587 139.525 58.5957 139.573 58.621 139.627C58.6462 139.68 58.6591 139.739 58.6586 139.798C58.6567 139.903 58.6138 140.002 58.5389 140.076C58.464 140.15 58.3631 140.193 58.2572 140.194C57.6048 140.194 56.9526 140.211 56.3082 140.243C51.5326 140.506 46.3132 141.738 42.2955 144.242C38.3329 146.724 35.5385 150.452 35.5385 155.749C35.5385 156.05 35.5465 156.336 35.5625 156.623C35.5701 156.719 35.5414 156.814 35.482 156.891C35.4226 156.967 35.3366 157.019 35.2407 157.037C35.2166 157.044 24.8349 159.238 26.9051 150.38C27.4741 147.984 28.5622 145.738 30.0944 143.797C31.7547 141.719 33.7887 139.961 36.0946 138.612C39.7714 136.426 44.0964 135.123 48.2761 135.29Z" fill="black"/>
<path d="M32.4291 151.98C32.403 152.081 32.3379 152.169 32.2476 152.223C32.1573 152.278 32.0489 152.296 31.9455 152.273C31.8938 152.262 31.8449 152.241 31.8017 152.211C31.7585 152.181 31.7219 152.143 31.6941 152.098C31.6663 152.054 31.6478 152.004 31.6398 151.953C31.6318 151.901 31.6346 151.848 31.6477 151.798C32.5097 148.219 34.1445 144.968 36.9233 142.541C39.7017 140.11 43.6162 138.511 49.0442 138.224C49.0966 138.222 49.1491 138.229 49.1985 138.246C49.248 138.263 49.2935 138.291 49.3324 138.325C49.3714 138.36 49.4029 138.402 49.4253 138.449C49.4476 138.496 49.4604 138.547 49.4628 138.599C49.467 138.651 49.4603 138.703 49.4433 138.752C49.4263 138.802 49.3992 138.847 49.3638 138.886C49.3284 138.925 49.2853 138.956 49.2372 138.977C49.1891 138.999 49.1371 139.01 49.0843 139.011C43.8573 139.29 40.1042 140.816 37.4546 143.131C34.8123 145.444 33.2581 148.553 32.4291 151.98Z" fill="black"/>
<path fill-rule="evenodd" clip-rule="evenodd" d="M0.404297 146.279C0.404297 146.279 6.39616 137.429 17.422 138.931C28.4478 140.434 32.9818 150.469 32.9818 150.469L23.2609 154.651C16.0528 144.934 11.5429 145.253 0.404297 146.279Z" fill="#1BD9C4"/>
<path d="M0.0740211 146.047C0.0900773 146.024 6.20455 136.999 17.4781 138.541C28.7211 140.076 33.3361 150.277 33.3442 150.302C33.3672 150.348 33.3804 150.399 33.3831 150.451C33.3858 150.503 33.3779 150.555 33.3598 150.604C33.3418 150.653 33.314 150.698 33.2781 150.736C33.2421 150.774 33.1988 150.804 33.1508 150.825L23.4229 155.018C23.3394 155.052 23.2468 155.058 23.1594 155.035C23.0721 155.012 22.9948 154.962 22.9398 154.891C19.3961 150.112 16.529 147.799 13.1948 146.821C9.84455 145.835 5.96261 146.161 0.437474 146.67C0.331545 146.678 0.226486 146.645 0.145064 146.578C0.063643 146.51 0.0124204 146.414 0.00249832 146.309C-0.00628984 146.216 0.019098 146.123 0.0740211 146.047ZM17.3654 139.321C8.47394 138.112 2.94114 143.765 1.27276 145.8C6.41109 145.331 10.1157 145.087 13.4178 146.056C16.8728 147.073 19.8205 149.403 23.3963 154.167L32.4406 150.27C31.5163 148.481 26.9498 140.634 17.3654 139.323V139.321Z" fill="black"/>
<path d="M8.35318 143.335C8.30093 143.343 8.24757 143.341 8.19618 143.329C8.14479 143.316 8.09638 143.294 8.05372 143.263C8.01106 143.232 7.97501 143.193 7.94762 143.148C7.92023 143.104 7.90204 143.054 7.89412 143.003C7.8813 142.898 7.91023 142.792 7.97483 142.708C8.03944 142.623 8.13467 142.567 8.24043 142.551C8.28057 142.551 23.7441 140.323 28.6087 151.732C28.6299 151.781 28.641 151.833 28.6414 151.886C28.6418 151.939 28.6315 151.991 28.6111 152.04C28.5907 152.089 28.5606 152.133 28.5226 152.17C28.4846 152.208 28.4395 152.237 28.3898 152.257C28.2914 152.295 28.182 152.294 28.0844 152.254C27.9868 152.214 27.9085 152.138 27.8661 152.043C23.2445 141.196 8.39332 143.335 8.35318 143.335Z" fill="black"/>
<path fill-rule="evenodd" clip-rule="evenodd" d="M40.7052 182.714L45.0543 150.455H13.258L17.607 182.714H40.7052Z" fill="white"/>
<path d="M40.3498 182.317L44.5941 150.855H13.7156L17.9599 182.317H40.3498ZM45.456 150.505L41.0504 183.112H17.2581C15.7693 172.092 14.2829 161.074 12.7989 150.06H45.5137L45.456 150.505Z" fill="black"/>
<path fill-rule="evenodd" clip-rule="evenodd" d="M40.7052 182.714L45.0543 178.451H13.258L17.607 182.714H40.7052Z" fill="white"/>
<path d="M40.5363 182.318L44.0799 178.85H14.2323L17.776 182.318H40.5363ZM45.3363 178.732L40.8665 183.113H17.4465L12.2756 178.054H46.03L45.3363 178.732Z" fill="black"/>
<path d="M38.0242 155.137C38.0267 155.084 38.0404 155.031 38.0643 154.982C38.0882 154.934 38.122 154.891 38.1634 154.856C38.2047 154.821 38.2529 154.794 38.305 154.778C38.3571 154.761 38.4119 154.756 38.4663 154.761C38.5206 154.767 38.5732 154.784 38.6209 154.81C38.6686 154.836 38.7103 154.872 38.7435 154.915C38.7768 154.958 38.8008 155.006 38.8142 155.059C38.8277 155.111 38.8302 155.166 38.8215 155.219L36.7996 173.792C36.7974 173.846 36.784 173.899 36.7604 173.948C36.7367 173.997 36.7032 174.04 36.6618 174.076C36.6205 174.111 36.5724 174.138 36.5202 174.154C36.468 174.171 36.4129 174.177 36.3584 174.171C36.3039 174.166 36.251 174.149 36.2032 174.123C36.1553 174.096 36.1134 174.061 36.0801 174.018C36.0467 173.975 36.0227 173.926 36.0093 173.873C35.9959 173.821 35.9935 173.766 36.0022 173.713L38.0242 155.137Z" fill="black"/>
<path d="M70.3878 177.526C70.2819 177.524 70.1811 177.482 70.1062 177.408C70.0314 177.334 69.9884 177.234 69.9865 177.129C69.9865 177.077 69.997 177.026 70.0172 176.978C70.0373 176.93 70.0668 176.886 70.1041 176.849C70.1414 176.812 70.1855 176.783 70.2342 176.763C70.2829 176.743 70.3351 176.733 70.3878 176.733H136.406C136.458 176.733 136.511 176.743 136.56 176.763C136.609 176.782 136.653 176.812 136.691 176.848C136.728 176.885 136.757 176.929 136.777 176.977C136.797 177.026 136.808 177.077 136.807 177.129C136.807 177.234 136.764 177.335 136.689 177.41C136.614 177.484 136.512 177.525 136.406 177.526H70.3878Z" fill="black"/>
<path d="M144.373 183.126C144.267 183.126 144.165 183.084 144.09 183.01C144.014 182.935 143.972 182.835 143.972 182.729C143.972 182.624 144.014 182.524 144.09 182.449C144.165 182.375 144.267 182.333 144.373 182.333H190.426C190.532 182.335 190.632 182.377 190.707 182.451C190.782 182.525 190.825 182.625 190.827 182.729C190.826 182.834 190.784 182.935 190.709 183.009C190.634 183.083 190.532 183.125 190.426 183.126H144.373Z" fill="black"/>
<path d="M6.92638 183.113C6.81939 183.113 6.71679 183.071 6.64114 182.996C6.56548 182.922 6.52298 182.82 6.52298 182.715C6.52298 182.609 6.56548 182.508 6.64114 182.433C6.71679 182.358 6.81939 182.316 6.92638 182.316H53.1082C53.2152 182.316 53.3178 182.358 53.3935 182.433C53.4691 182.508 53.5116 182.609 53.5116 182.715C53.5116 182.82 53.4691 182.922 53.3935 182.996C53.3178 183.071 53.2152 183.113 53.1082 183.113H6.92638Z" fill="black"/>
<path fill-rule="evenodd" clip-rule="evenodd" d="M160.402 171.44H165.153V123.636H160.402V171.44Z" fill="#1BD9C4"/>
</g>
<defs>
<clipPath id="clip0_1_449">
<rect width="208" height="208" fill="white"/>
</clipPath>
</defs>
</svg>
