<svg width="96" height="48" viewBox="0 0 96 48" fill="none" xmlns="http://www.w3.org/2000/svg">
<g clip-path="url(#clip0_1_676)">
<path fill-rule="evenodd" clip-rule="evenodd" d="M22.6779 41.4752C22.8395 41.3623 23.026 41.3249 23.2001 41.3567C23.3753 41.3884 23.5374 41.4893 23.6508 41.6515C23.7648 41.8142 23.8039 42.0058 23.7733 42.1844C23.7438 42.3624 23.6451 42.528 23.4836 42.6408C23.0856 42.9186 22.6626 43.1096 22.2193 43.231C21.7754 43.3523 21.3122 43.4039 20.8326 43.4039C19.7503 43.4039 18.8103 43.0053 18.1408 42.3358C17.4718 41.6668 17.0732 40.7268 17.0732 39.6445C17.0732 38.5611 17.4537 37.6138 18.1107 36.9414C18.7559 36.2809 19.667 35.8852 20.7447 35.8852C21.7839 35.8852 22.6422 36.2786 23.2488 36.9215C23.8827 37.5934 24.2404 38.5379 24.2404 39.5895C24.2404 39.7885 24.1599 39.9682 24.0301 40.0986L24.029 40.0992C23.8986 40.229 23.7194 40.309 23.5215 40.309H18.6062C18.7287 40.8464 18.9821 41.2773 19.3603 41.5721C19.7322 41.8612 20.2243 42.0206 20.8326 42.0206C21.1869 42.0206 21.5123 41.9792 21.8173 41.8902C22.1218 41.8011 22.4064 41.6651 22.6779 41.4752ZM22.7743 39.0271H20.6568H18.5393C18.7253 37.8876 19.485 37.222 20.6563 37.222C21.827 37.222 22.5878 37.8859 22.7743 39.0271Z" fill="black"/>
<path d="M65.4383 43.4044C64.356 43.4044 63.4161 43.0059 62.7465 42.3363C62.077 41.6668 61.6784 40.7268 61.6784 39.6445C61.6784 38.5623 62.077 37.6223 62.7465 36.9527C63.4161 36.2838 64.356 35.8846 65.4383 35.8846C66.5206 35.8846 67.4606 36.2838 68.1301 36.9527C68.7991 37.6223 69.1982 38.5623 69.1982 39.6445C69.1982 40.7268 68.7991 41.6668 68.1295 42.3363C67.4606 43.0059 66.5206 43.4044 65.4383 43.4044ZM65.4383 42.0206C66.139 42.0206 66.7122 41.7768 67.1136 41.3663C67.528 40.9423 67.7593 40.3402 67.7593 39.6445V39.6428V39.6054C67.7508 38.9359 67.5269 38.3514 67.1312 37.9347C66.736 37.518 66.1697 37.2685 65.4752 37.2685L65.4729 37.268L65.4383 37.2685C64.7353 37.277 64.1604 37.5231 63.759 37.9341C63.3469 38.3553 63.1167 38.9512 63.1167 39.6445C63.1167 40.3402 63.3486 40.9423 63.7624 41.3663C64.1638 41.7768 64.7376 42.0206 65.4383 42.0206Z" fill="black"/>
<path d="M48.8618 42.7394C48.8618 42.9344 48.7841 43.0983 48.6577 43.2145C48.5273 43.3347 48.3441 43.4039 48.1423 43.4039C47.9405 43.4039 47.7574 43.3347 47.627 43.2145C47.5005 43.0983 47.4229 42.9344 47.4229 42.7394V39.2868C47.4229 38.6904 47.212 38.1813 46.8525 37.8213C46.4925 37.4618 45.9834 37.2509 45.387 37.2509C44.7917 37.2509 44.2934 37.459 43.943 37.8156C43.5898 38.175 43.3869 38.6864 43.3869 39.2868V42.7394C43.3869 42.9344 43.3092 43.0983 43.1828 43.2145C43.0524 43.3347 42.8693 43.4039 42.6674 43.4039C42.4656 43.4039 42.2825 43.3347 42.1521 43.2145C42.0257 43.0983 41.948 42.9344 41.948 42.7394V39.2868C41.948 38.2958 42.312 37.4477 42.9226 36.8467C43.5388 36.2407 44.4057 35.8852 45.4052 35.8852C46.4041 35.8852 47.2715 36.2407 47.8872 36.8467C48.4978 37.4477 48.8618 38.2952 48.8618 39.2868V42.7394Z" fill="black"/>
<path d="M17.1322 32.919C17.3272 32.919 17.4905 32.9967 17.6067 33.1231C17.7275 33.2535 17.7966 33.4366 17.7966 33.6384C17.7966 33.8403 17.7275 34.0234 17.6067 34.1538C17.4905 34.2802 17.3272 34.3579 17.1322 34.3579H14.6297V42.7394C14.6297 42.9345 14.5521 43.0983 14.4256 43.2145C14.2952 43.3347 14.1121 43.4039 13.9103 43.4039C13.7085 43.4039 13.5254 43.3347 13.395 43.2145C13.2685 43.0983 13.1909 42.9345 13.1909 42.7394V34.3579H10.689C10.494 34.3579 10.3301 34.2802 10.2139 34.1538C10.0937 34.0234 10.0245 33.8403 10.0245 33.6384C10.0245 33.4366 10.0937 33.2535 10.2139 33.1231C10.3301 32.9967 10.494 32.919 10.689 32.919H17.1322Z" fill="black"/>
<path d="M30.894 41.4202C31.068 41.3074 31.2506 41.2699 31.4172 41.3006C31.5879 41.3317 31.7421 41.4332 31.856 41.5965C31.9677 41.7558 32.004 41.9344 31.9757 42.1045C31.9467 42.2796 31.8487 42.4463 31.695 42.5733C31.3628 42.8489 30.9677 43.0524 30.5396 43.189C30.0827 43.3347 29.5883 43.4039 29.0928 43.4039C28.0145 43.4039 27.1034 43.0082 26.4588 42.3477C25.8018 41.6753 25.4208 40.728 25.4208 39.6445L25.4213 39.6423V39.6355V39.6264H25.4208C25.4208 38.543 25.8018 37.5956 26.4588 36.9233C27.1034 36.2628 28.0145 35.8671 29.0928 35.8671C29.5883 35.8671 30.0849 35.9368 30.5442 36.0831C30.9733 36.2197 31.3702 36.4232 31.7024 36.6982C31.8555 36.8252 31.9513 36.9907 31.9785 37.1653C32.0057 37.3354 31.9683 37.5146 31.856 37.6745C31.7421 37.8377 31.589 37.9398 31.4206 37.971C31.2551 38.0016 31.0754 37.9647 30.9013 37.8519C30.623 37.671 30.3469 37.5202 30.0526 37.4154C29.759 37.3105 29.446 37.2509 29.0928 37.2509C28.3949 37.2509 27.8484 37.4902 27.4714 37.891C27.0706 38.3173 26.8597 38.9268 26.8597 39.6264V39.6281V39.6355V39.636V39.6366V39.6445C26.8597 40.3441 27.0706 40.9536 27.4714 41.3799C27.8484 41.7807 28.3949 42.0206 29.0928 42.0206C29.446 42.0206 29.7567 41.9605 30.0492 41.8561C30.3418 41.7513 30.6156 41.601 30.894 41.4202Z" fill="black"/>
<path d="M53.8757 43.4044C52.7934 43.4044 51.8534 43.0059 51.1839 42.3363C50.5149 41.6668 50.1158 40.7268 50.1158 39.6445C50.1158 38.5623 50.5149 37.6223 51.1839 36.9527C51.8534 36.2832 52.7934 35.8846 53.8757 35.8846C54.958 35.8846 55.8979 36.2838 56.5675 36.9527C57.237 37.6223 57.6356 38.5623 57.6356 39.6445C57.6356 40.7268 57.237 41.6668 56.5675 42.3363C55.8979 43.0059 54.958 43.4044 53.8757 43.4044ZM53.8757 42.0206C54.5764 42.0206 55.1502 41.7768 55.5515 41.3663C55.9654 40.9423 56.1973 40.3402 56.1973 39.6445V39.6428L56.1967 39.6054C56.1888 38.9359 55.9643 38.3514 55.5691 37.9347C55.174 37.518 54.607 37.2685 53.9131 37.2685L53.9108 37.268L53.8763 37.2685C53.1733 37.277 52.5978 37.5231 52.1964 37.9341C51.7848 38.3553 51.5547 38.9512 51.5547 39.6445C51.5547 40.3402 51.786 40.9423 52.2004 41.3663C52.6018 41.7768 53.175 42.0206 53.8757 42.0206Z" fill="black"/>
<path d="M58.9208 33.5835C58.9208 33.3884 58.9985 33.2246 59.1249 33.1084C59.2553 32.9882 59.4384 32.919 59.6403 32.919C59.8421 32.919 60.0252 32.9882 60.1556 33.1084C60.282 33.2246 60.3597 33.3884 60.3597 33.5835V42.7394C60.3597 42.9345 60.282 43.0983 60.1556 43.2145C60.0252 43.3347 59.8421 43.4039 59.6403 43.4039C59.4384 43.4039 59.2553 43.3347 59.1249 43.2145C58.9985 43.0983 58.9208 42.9345 58.9208 42.7394V33.5835Z" fill="black"/>
<path d="M33.4791 33.5835C33.4791 33.3884 33.5568 33.2246 33.6827 33.1084C33.8136 32.9882 33.9962 32.919 34.1986 32.919C34.4004 32.919 34.5829 32.9882 34.7139 33.1084C34.8398 33.2246 34.9174 33.3884 34.9174 33.5835V36.6738C35.5558 36.1794 36.337 35.8852 37.1115 35.8852C38.1025 35.8852 38.912 36.235 39.4795 36.8235C40.0658 37.4312 40.3923 38.293 40.3923 39.2868V42.7394C40.3923 42.9345 40.3146 43.0983 40.1888 43.2145C40.0578 43.3347 39.8753 43.4039 39.6734 43.4039C39.471 43.4039 39.2885 43.3347 39.1575 43.2145C39.0317 43.0983 38.954 42.9345 38.954 42.7394V39.2868C38.954 38.6859 38.7675 38.1694 38.4103 37.8099C38.0724 37.4698 37.5809 37.2691 36.9499 37.2691C36.2968 37.2691 35.7973 37.4647 35.4572 37.8054C35.1 38.1643 34.918 38.6847 34.918 39.3089V42.685C34.918 42.8834 34.8375 43.0631 34.7071 43.1935C34.6175 43.2831 34.5047 43.3489 34.3783 43.3812L34.3698 43.3835H34.3692L34.3613 43.3857H34.3607L34.3522 43.3874L34.3437 43.3897H34.3431L34.3346 43.3914L34.3261 43.3931H34.3256L34.3171 43.3942L34.308 43.3959L34.2989 43.3971L34.2904 43.3982H34.2898L34.2813 43.3993H34.2808L34.2723 43.4005H34.2717L34.2632 43.401H34.2626L34.2541 43.4022H34.2536L34.2451 43.4027H34.2445L34.2354 43.4033H34.2263L34.2173 43.4039H34.2167H34.2082H34.2076H34.1986H34.1895H34.1889H34.1799L34.1708 43.4033H34.1617H34.1611L34.1526 43.4027H34.1521L34.1436 43.4022H34.143L34.1339 43.401L34.1249 43.4005L34.1158 43.3993L34.1073 43.3982H34.1067L34.0982 43.3971H34.0976L34.0891 43.3959L34.0801 43.3942L34.0716 43.3931H34.071L34.0625 43.3914L34.054 43.3897H34.0534L34.0449 43.3874L34.0364 43.3857H34.0359L34.0273 43.3835L34.0188 43.3812C33.8924 43.3489 33.779 43.2826 33.69 43.1935L33.6895 43.193C33.5596 43.0626 33.4791 42.8829 33.4791 42.685V33.5835Z" fill="black"/>
<path d="M71.0493 45.7022C70.7204 45.4721 70.6796 45.0435 70.903 44.7243C71.1298 44.4 71.5204 44.3286 71.8492 44.548C72.4632 44.9573 73.0437 45.1206 73.7762 45.1206C75.3013 45.1206 76.1329 43.9181 76.1329 42.4826C75.6788 43.0841 74.7865 43.4044 73.9021 43.4044C71.7262 43.4044 70.3128 41.7501 70.3128 39.6445C70.3128 37.4964 71.7437 35.8846 73.9848 35.8846C76.2259 35.8846 77.5355 37.404 77.5355 39.6445V42.4282C77.5355 44.9584 76.1052 46.5044 73.7762 46.5044C72.7869 46.5044 71.8707 46.276 71.0493 45.7022ZM73.9021 42.0206C75.5076 42.0206 76.125 41.1645 76.125 39.6445C76.125 38.3123 75.3914 37.2685 73.9848 37.2685C72.5562 37.2685 71.7511 38.2624 71.7511 39.6445C71.7511 40.9836 72.4462 42.0206 73.9021 42.0206Z" fill="black"/>
<path d="M78.4852 36.908C78.4013 36.7288 78.3984 36.5321 78.4608 36.3597C78.5232 36.1879 78.6519 36.0394 78.831 35.9555C79.0102 35.8716 79.2063 35.8682 79.3787 35.9306C79.551 35.9935 79.6996 36.1216 79.7835 36.3008V36.3013L82.1992 41.6158L84.6092 36.3013L84.6098 36.2996C84.6937 36.1211 84.8422 35.9935 85.014 35.9306C85.1863 35.8682 85.3825 35.8716 85.5616 35.9555C85.7408 36.0388 85.8695 36.1879 85.9319 36.3597C85.9942 36.5321 85.9908 36.7288 85.9075 36.908L84.8774 39.1094L82.4514 44.2945C82.3103 44.5978 82.1481 44.8847 81.9616 45.1478C81.7745 45.4114 81.5619 45.6506 81.3198 45.857C81.0817 46.06 80.8096 46.2272 80.504 46.3361C80.2274 46.4353 79.9224 46.4869 79.5884 46.4755C79.3906 46.4687 79.2177 46.3882 79.0946 46.2607C78.971 46.1325 78.8973 45.9562 78.8973 45.7578V45.755L78.8979 45.7396C78.9019 45.548 78.975 45.3723 79.0946 45.2447C79.2148 45.1166 79.3821 45.0366 79.5737 45.0366H79.5743L79.5896 45.0372C80.5335 45.0582 81.0545 43.9629 81.4202 43.1941L81.4565 43.1176L78.4852 36.908Z" fill="black"/>
<path d="M35.0694 7.93933C37.5135 7.93933 39.7268 8.9309 41.3284 10.5319C42.9299 12.1341 43.9204 14.3462 43.9204 16.7903V19.1516V23.3877C43.9204 24.6763 42.9821 25.6248 41.6969 25.6413C39.5238 25.6413 37.243 25.6413 35.0694 25.6418C32.6259 25.6418 30.4132 24.6508 28.811 23.0492C27.21 21.4477 26.2184 19.2344 26.2184 16.7903C26.2184 14.3468 27.21 12.1341 28.811 10.5319C30.4132 8.9309 32.6259 7.93933 35.0694 7.93933ZM34.9628 21.887H34.9838H35.0496C36.4306 21.8689 37.6796 21.302 38.5872 20.3943C39.5096 19.4725 40.08 18.198 40.08 16.7903C40.08 15.3832 39.5096 14.1087 38.5872 13.1869C37.6654 12.2645 36.3909 11.6941 34.9838 11.6941C33.5761 11.6941 32.3016 12.2645 31.3798 13.1869C30.4574 14.1087 29.8871 15.3832 29.8871 16.7903C29.8871 18.198 30.4574 19.4725 31.3798 20.3943C32.2971 21.3122 33.5636 21.8814 34.9628 21.887Z" fill="#12ACAB"/>
<path d="M64.9876 9.87713C64.9876 8.89634 65.7824 8.20865 66.7632 8.20865C67.744 8.20865 68.5389 8.89634 68.5389 9.87713V23.9195C68.5389 24.8997 67.744 25.5874 66.7632 25.5874C65.7824 25.5874 64.9876 24.8997 64.9876 23.9195V9.87713Z" fill="black"/>
<path d="M66.7632 5.96982C67.9988 5.96982 69.0004 4.96822 69.0004 3.73269C69.0004 2.49717 67.9988 1.49557 66.7632 1.49557C65.5277 1.49557 64.5261 2.49717 64.5261 3.73269C64.5261 4.96822 65.5277 5.96982 66.7632 5.96982Z" fill="black"/>
<path d="M82.3993 14.2816C82.1175 12.5502 80.8198 11.545 79.2075 11.545C77.6059 11.545 76.3581 12.574 76.0944 14.1388C76.027 14.5384 75.9703 15.8741 75.9703 16.2784V23.9195C75.9703 24.8997 75.1754 25.5874 74.1946 25.5874C73.2138 25.5874 72.419 24.8997 72.419 23.9195V14.8242C72.419 10.1889 75.4408 7.99319 79.2075 7.99319C81.1333 7.99319 83.1732 8.80107 84.2095 10.6498C85.2459 8.80107 87.2857 7.99319 89.2116 7.99319C92.9783 7.99319 96 10.1889 96 14.8242V23.9195C96 24.8997 95.2052 25.5874 94.2244 25.5874C93.2436 25.5874 92.4488 24.8997 92.4488 23.9195V16.2784C92.4488 15.8741 92.3921 14.5379 92.3246 14.1388C92.0616 12.5746 90.8132 11.545 89.2116 11.545C87.5992 11.545 86.3021 12.5496 86.0192 14.2816C85.946 14.7318 85.975 15.3293 85.975 15.7936C85.975 18.4662 85.975 21.2464 85.975 23.9195C85.975 24.8963 85.1852 25.5817 84.2095 25.5874C83.2338 25.5817 82.4441 24.8963 82.4441 23.9195C82.4441 21.2464 82.4441 18.4662 82.4441 15.7936C82.4441 15.3293 82.4724 14.7312 82.3993 14.2816Z" fill="black"/>
<path d="M9.97975 14.2816C9.69798 12.5502 8.40027 11.545 6.78735 11.545C5.18576 11.545 3.93737 12.5746 3.67431 14.1388C3.60742 14.5379 3.55072 15.8741 3.55072 16.2784V23.9195C3.55072 24.8997 2.75532 25.5874 1.77509 25.5874C0.794292 25.5874 -0.000549316 24.8997 -0.000549316 23.9195V14.8242C-0.000549316 10.1889 3.02121 7.99319 6.78735 7.99319C8.71379 7.99319 10.753 8.80107 11.79 10.6498C12.8263 8.80107 14.8656 7.99319 16.792 7.99319C20.5582 7.99319 23.5805 10.1889 23.5805 14.8242V23.9195C23.5805 24.8997 22.7851 25.5874 21.8043 25.5874C20.8241 25.5874 20.0286 24.8997 20.0286 23.9195V16.2784C20.0286 15.8741 19.9725 14.5384 19.9051 14.1388C19.6414 12.574 18.3936 11.545 16.792 11.545C15.1791 11.545 13.8825 12.5496 13.5996 14.2816C13.5265 14.7318 13.5548 15.3293 13.5548 15.7936C13.5548 18.4662 13.5548 21.2464 13.5548 23.9195C13.5548 24.8963 12.7657 25.5817 11.79 25.5874C10.8137 25.5817 10.0245 24.8963 10.0245 23.9195C10.0245 21.2464 10.0245 18.4662 10.0245 15.7936C10.0245 15.3293 10.0529 14.7306 9.97975 14.2816Z" fill="black"/>
<path d="M46.9767 11.0875C46.3678 10.3216 46.4948 9.20642 47.2613 8.59754C48.0272 7.98808 49.1424 8.11564 49.7513 8.88157L53.874 14.0838L57.9106 8.88157C58.52 8.11564 59.6352 7.98808 60.4011 8.59754C61.1671 9.20642 61.2941 10.3216 60.6852 11.0875L56.161 16.7585L60.7713 22.7085C61.3802 23.475 61.2532 24.5902 60.4873 25.1991C59.7208 25.8079 58.6056 25.6804 57.9968 24.9145L53.7878 19.4322L49.6651 24.9145C49.0562 25.6804 47.9411 25.8079 47.1751 25.1991C46.4092 24.5902 46.2816 23.475 46.8905 22.7085L51.5008 16.7585L46.9767 11.0875Z" fill="black"/>
</g>
<defs>
<clipPath id="clip0_1_676">
<rect width="96" height="48" fill="white"/>
</clipPath>
</defs>
</svg>
