<svg width="53" height="20" viewBox="0 0 53 20" fill="none" xmlns="http://www.w3.org/2000/svg">
<path d="M26.6673 0C29.4285 0 31.9291 1.12026 33.7385 2.92906C35.548 4.73915 36.667 7.23843 36.667 9.99968V12.6674V17.4533C36.667 18.9092 35.6069 19.9808 34.1549 19.9994C31.6998 19.9994 29.123 19.9994 26.6673 20C23.9067 20 21.4068 18.8804 19.5967 17.0709C17.7879 15.2615 16.6676 12.7609 16.6676 9.99968C16.6676 7.23907 17.7879 4.73915 19.5967 2.92906C21.4068 1.12026 23.9067 0 26.6673 0ZM26.5469 15.7579H26.5706H26.6449C28.2052 15.7374 29.6162 15.0969 30.6417 14.0714C31.6838 13.0299 32.3281 11.5901 32.3281 9.99968C32.3281 8.40993 31.6838 6.97006 30.6417 5.92858C29.6002 4.88647 28.1603 4.24211 26.5706 4.24211C24.9802 4.24211 23.5403 4.88647 22.4988 5.92858C21.4567 6.97006 20.8124 8.40993 20.8124 9.99968C20.8124 11.5901 21.4567 13.0299 22.4988 14.0714C23.5352 15.1084 24.9661 15.7515 26.5469 15.7579Z" fill="#12ACAB"/>
</svg>
