<svg width="48" height="48" viewBox="0 0 48 48" fill="none" xmlns="http://www.w3.org/2000/svg">
<circle cx="24" cy="24" r="24" fill="white" fill-opacity="0.1"/>
<path d="M25.6406 12.25L25.4375 28.5781H22.8281L22.6094 12.25H25.6406ZM22.5156 33.5469C22.5156 33.0781 22.6562 32.6823 22.9375 32.3594C23.2292 32.0365 23.6562 31.875 24.2188 31.875C24.7708 31.875 25.1927 32.0365 25.4844 32.3594C25.7865 32.6823 25.9375 33.0781 25.9375 33.5469C25.9375 33.9948 25.7865 34.3802 25.4844 34.7031C25.1927 35.026 24.7708 35.1875 24.2188 35.1875C23.6562 35.1875 23.2292 35.026 22.9375 34.7031C22.6562 34.3802 22.5156 33.9948 22.5156 33.5469Z" fill="white"/>
</svg>
