<svg width="56" height="20" viewBox="0 0 56 20" fill="none" xmlns="http://www.w3.org/2000/svg">
<path d="M39.0445 13.8225H36.9783C36.6343 13.8225 36.3555 14.1013 36.3555 14.4452V19.3772C36.3555 19.7211 36.6343 19.9999 36.9783 19.9999H39.0445C39.3884 19.9999 39.6673 19.7211 39.6673 19.3772V14.4452C39.6673 14.1013 39.3885 13.8225 39.0445 13.8225Z" fill="#DCDCDC"/>
<path d="M33.9556 11.4545H31.8894C31.5455 11.4545 31.2666 11.7333 31.2666 12.0772V19.3772C31.2666 19.7211 31.5454 19.9999 31.8894 19.9999H33.9556C34.2996 19.9999 34.5784 19.7211 34.5784 19.3772V12.0773C34.5784 11.7333 34.2996 11.4545 33.9556 11.4545Z" fill="#DCDCDC"/>
<path d="M23.7779 13.8225H21.7117C21.3677 13.8225 21.0889 14.1013 21.0889 14.4452V19.3772C21.0889 19.7211 21.3677 19.9999 21.7117 19.9999H23.7779C24.1218 19.9999 24.4007 19.7211 24.4007 19.3772V14.4452C24.4007 14.1013 24.1218 13.8225 23.7779 13.8225Z" fill="#DCDCDC"/>
<path d="M18.689 11.4545H16.6228C16.2788 11.4545 16 11.7333 16 12.0773V19.3772C16 19.7211 16.2788 20 16.6228 20H18.689C19.033 20 19.3118 19.7212 19.3118 19.3772V12.0773C19.3118 11.7333 19.033 11.4545 18.689 11.4545Z" fill="#DCDCDC"/>
<path d="M28.8668 8.30596H26.8005C26.4566 8.30596 26.1777 8.58477 26.1777 8.92875V19.3772C26.1777 19.7211 26.4565 20 26.8005 20H28.8668C29.2107 20 29.4896 19.7212 29.4896 19.3772V8.92875C29.4896 8.58477 29.2107 8.30596 28.8668 8.30596Z" fill="#DCDCDC"/>
<path d="M38.4894 10.759C38.9084 10.759 39.2616 10.4176 39.2616 9.98684V7.49121C39.2616 7.06476 38.9159 6.71903 38.4894 6.71903C38.063 6.71903 37.7172 7.06476 37.7172 7.49121V8.11508L29.8745 0.227729C29.7125 0.0647991 29.4866 -0.0176696 29.2573 0.00317925C29.0285 0.0239251 28.8207 0.145518 28.6905 0.334959L22.7821 8.93487L17.5929 5.62912C17.2332 5.39999 16.7558 5.50578 16.5267 5.86551C16.2976 6.22519 16.4034 6.7025 16.7631 6.93164L22.5813 10.6381C22.7097 10.7199 22.8534 10.7591 22.9955 10.7591C23.2417 10.7591 23.4832 10.6415 23.6326 10.4242L29.4361 1.97702L36.6326 9.21466H35.9938C35.5673 9.21466 35.2216 9.56039 35.2216 9.98684C35.2216 10.4133 35.5673 10.759 35.9938 10.759C36.3392 10.759 38.1378 10.759 38.4876 10.759H38.4894Z" fill="#DCDCDC"/>
</svg>
